<?xml version="1.0" encoding="utf-8"?>
<!-- Generator: Adobe Illustrator 22.0.1, SVG Export Plug-In . SVG Version: 6.00 Build 0)  -->
<svg version="1.1" id="Layer_1" xmlns="http://www.w3.org/2000/svg" xmlns:xlink="http://www.w3.org/1999/xlink" x="0px" y="0px"
	 width="212.55px" height="300.1px" viewBox="0 0 212.55 300.1" style="enable-background:new 0 0 212.55 300.1;"
	 xml:space="preserve">
<path d="M209.41,109.21c2.85-1.66,3.48-4.71,2.92-7.8c-0.67-3.7-3.55-5.34-6.66-6.53c-1.94-0.74-4.11,0.37-6.19-0.14
	c0.4-1.17,0.35-2.43-0.88-2.72c-6.73-1.59-12.44,1.31-17.94,5.52c-0.33,0.25-1.54,0.05-1.38-0.12c2.31-2.47,5.76-3.55,7.53-6.54
	c2.93-4.96,4.57-10.34,4.91-15.81h0c0.35-5.72-0.72-11.54-3.22-17.08c-0.73-1.62,0.82-3.7-0.21-5.74c-1.61-3.21-2.58-6.43-3.51-9.93
	c-0.03-0.1-0.85-0.18-1.03,0.03c-2.56,3.01-5.74,5.31-7.16,9.09c-3.33-1.56-7.87-0.07-10.21-3.06c-0.88-1.12,1.44-1.36,1.8-2.38
	c0.3-0.83,1.35-2.02,0.83-2.18c-4.46-1.4-10.98-2.47-13.79,1.96c-2.32,3.66-1.49,8.11,0.28,11.84c1.06,2.24,5.06,2.53,5.05,3.81
	c-0.04,4.53-0.77,9.69,2.17,13.53c0.03,0.04,0.07,0.08,0.1,0.11c0.31,0.28,0.74,0.21,1.22,0c0.68-0.31,1.45-0.92,2.06-1.29
	c3.21-1.92,3.76-6.35,7.61-7.21c2.09-0.47,4.15,0.84,5.52,1.88c2.13,1.63,3.01,4.08,2.93,6.62c-0.11,3.79-2.35,7.75-5.72,9.37
	c-0.43,0.21-0.95-1.66-1.96-2.14c-0.34-0.16-0.89-0.19-1.17,0.02c-2.58,1.88-4.78,3.84-6.29,6.59c-1.29-0.9-2.99-1.44-3.95-0.59
	c-5.55,4.93-12.61,7.68-19.77,7.09c-2.21-0.18-3.56-1.93-3.59-4.41c-0.01-0.9-2.26,0.15-2.56-1.28c-0.17-0.83-0.12-1.66-0.96-2.01
	c-0.36-0.15-0.86,0.06-1.2-0.11c-1.45-0.73-1.44-2.48-1.92-3.76c-1.12-2.94-1.57-5.86-2.7-8.77h0c-1.1-2.83-2.87-5.64-4.14-8.42
	c-0.29-0.63,0.52-2.63,1.06-3.86c1.27-2.93,4.01-0.39,6.83-0.98c0.64-0.14,0.56-0.85,0.35-1.14c-0.65-0.91-1.44-1.76-1.81-2.64
	c-2.83-6.75-1.33-14.4-6.07-20.69c-3.43-4.55-9-2.19-13.68-2.96c2.65-3.29,6.16-5.84,7.29-10.05c2.13-7.93,2.04-17.28-3.43-23.39
	c-1.47-1.64-3.98-0.45-6.39-0.86c-0.85-0.14-2.03,1.19-2.86,1.15c-1.73-0.07-4.54,0.19-4.58,1.52c-0.21,5.75,1.45,11.52,0.69,17.45
	c-0.33,2.6-0.98,5.25-2.97,6.85c-2.04,1.65-5.77,0.78-6.87-1.85c-0.16-0.39,0.13-0.79,0.39-0.74c2.18,0.38,2.82-1.44,3.26-3.02
	c0.32-1.15-0.61-2.36-0.47-3.27c0.25-1.69,0.2-3.23-0.44-4.54c-1.5-3.09-5.59-3.29-8.07-1.21c-1.03,0.86-1.66,2.05-1.92,3.6
	c-0.15,0.88-1.77,1.25-1.73,2.1c0.1,2.25,0.6,4.38,2.17,6.36c0.42,0.53,0.34,1.63,0.04,2.35c-1.38,3.31-4.18,6.34-3.35,9.96
	c0.91,3.98,4.22,7.12,3.58,11.26c-0.35,2.27-0.7,4.74-2.29,6.64c-2,2.39-5.49,3.16-6.45,6.35c-0.43,1.43,0.82,3.23,0.61,3.99
	c-0.95,3.53-2.53,6.86-4.6,10.03c-0.75,1.15-1.57,2.28-2.44,3.39c-1.49,1.89-3.4,2.32-5.77,2.63c-0.72,0.09-1,1.01-1.13,1.6
	c-0.48,2.27,2.08,2.9,3.62,3.72c-4.79,2.19-6.4,3.9-6.73,4.88c-0.29,1.05,0.65,1.51,0.65,1.51c-2.46,0.33-5.99-2.01-8.43-1.52
	c-0.31,0.06-0.58,1.28,1.01,3.37c0.16,0.22-1.16-0.52-1.44-0.78c-2.19-2.02-3.26-4.73-5.2-6.88c-2.6-2.89-6.34-4.95-10.22-4.52
	c-1.11,0.12-1.43,2.37-2.11,2.38c-5.1,0.08-10.65-4.67-12.18-9.76h0c-0.56-1.87-0.9-3.48-0.15-5.22c2-4.69,9.03-4.29,13.07-1.61
	c2.88,1.91,3.65,5.71,6.82,6.72c0.12,0.04,0.24,0.07,0.36,0.11c2.04,0.61,4.52,1.03,6.35,0c0.52-0.29,0.99-0.7,1.39-1.26
	c0.8-1.14-1.17-1.11-1.49-1.98c-1.25-3.38-1.89-7.03-4.6-9.57c4.72-2.57,6.84-8.54,3.62-13.24c-2.33-3.4-6.02-5.22-7.64-8.89
	c-0.31-0.69-0.09-2.01-0.65-2.24c-2.15-0.9-3.29,2.37-3.8,4.06c-0.83,2.73,0.37,5.75,1.16,8.43c1.2,4.04-5.39,5.58-8.99,7.19
	c-0.13,0.06-0.73-0.52-0.67-0.68c0.65-1.74,0.56-3.58,0.04-4.93c-1.12-2.9-2.2-5.97-4.31-8.43c-1.21,1.29-0.98,3.1-1.76,4.53
	c-1.48,2.75-3.97,4.81-5.12,7.62c-0.59,1.44-0.54,3.35-0.02,4.86c0.39,1.12,1.1,2.39,0.47,3.26c-1.51,2.09-2.11,4.03-2.6,6.4
	c-0.29,1.41,0.58,2.86,0.44,4.11c-0.03,0.26-0.05,0.51-0.07,0.76c-0.19,2.15-0.18,4.25,0.15,6.3c0.2,1.25,0.87,2.75,1.02,3.84
	c0.21,1.46-1.9,2.9-2.84,4.57c-0.24,0.43,0.1,1.31-0.17,1.49c-1.87,1.25-4.1-0.37-6.16,0.53c-1.55,0.68-3.06,1.31-4.54,2.15
	c-1.15,0.66-1.93,1.79-2.4,2.91c-1.93,4.62-1.48,12.44,4.45,13.27c0.25-2.21-1.88-4.13-0.34-6.19c1.74-2.32,6.16-3.39,6.87-1.13
	c0.84,2.67,0.12,7.06,2.8,8.11c3.01,1.18,6.67-2.18,10.16-1c1.7,0.57,3.71-0.62,5.06,1.05c-4.25,2.99-9.2,4.09-13.67,7.18
	c-3.26,2.25-5.97,4.45-7.92,7.84c-4.35,7.56-8.47,15.18-7.12,24.08h0c0.06,0.41,0.13,0.82,0.22,1.23c0.78,3.78,1.63,7.29,2.21,10.95
	c0.73,4.56-3.05,8.51-3.64,13.25c-0.73,5.85,3.03,11.44,8.71,13.26c0.41,0.13,1.1,0.25,1.16-0.37c0.17-1.58,0.09-3.14,0.9-4.57
	c1.54,2.73,1.39,5.7,1.82,8.72c0.12,0.85,1.43,0.58,1.82,0.29c2.61-1.95,6.09-2.03,7.37-5.62c1.73-4.86-2.72-7.78-3.14-11.76
	c-0.12-1.19,1.34,0.45,1.49,0.63c4.77,5.93,8.27,11.7,12.7,18.02c1.45,2.07-1.56,5.07-3.84,6.13c-1.93,0.9-4.27,1.52-6.52,0.95
	c-3.38-0.87-6.53-2.69-9.97-1.78c-2.78,0.73-4.25,3.96-3.18,6.39c0.63,1.43,0.78,2.81,1.57,4.19c0.11,0.18,0.81,0.2,1.09-0.01
	c0.93-0.69,1.61-2.52,2.97-1.18c-2.47,1.94-3.77,5.25-3.19,8.3c0.52,2.72-0.12,5.42,0.2,7.97c0.13,1.09,0.71,2.03,1.09,3.18
	c0.76,2.3,6.69,4.69,10.16,4.9c0.88,0.05-1.46-2.7-0.28-3.89c0.21-0.21,1.01,0.01,1.05-0.11c0.52-1.57-0.09-2.88-0.98-4.09
	c-1.03-1.4-2.43-2.65-2.83-3.97c-0.59-1.94,3.39-4.33,5.59-4.3c1.98,0.03,1.03,3.4,1.74,5.3c0.39,1.04,1.06,1.98,1.74,2.82
	c0.04,0.05,0.08,0.1,0.13,0.15c1.45,1.66,3.81,2.2,5.06,4.18c0.46,0.73,0.49,1.95,1.02,2.25c1.9,1.07,1.9-0.98,3.01-2.1l0.09,0.02
	c0.56,2.95,1.35,5.91,2.47,9.01c2.62,6.56,8.01,21.39,25.13,36.28c15.08,13.11,30.59,22.07,38.68,25.35
	c8.09-3.28,22.03-11.61,37.11-24.72c17.12-14.89,22.29-30.38,24.91-36.93c1.23-3.39,2.09-6.61,2.69-9.84l0.24,0.42
	c0.42,0.69,1.95-0.7,2.16-0.94c1.22-1.38,0.93-1.39,2.32-2.19c0.51-0.29,1.22-0.53,1.96-0.79c0.92-0.32,1.87-0.67,2.49-1.15
	c2.63-2.08,0.88-5.76,1.89-8.87c2.91,2.12,6.77,2.31,9.81,4.06c3.51,2.02-0.37,4.19-2.82,5.97c-0.42,0.3-0.8,0.6-1.09,0.87
	c-0.21,0.2-0.07,0.76-0.07,1.18c1.94-0.17,3.57,0.91,5.42,1.16c2.44,0.32,4.39-1.21,5.42-3.2c0.29-0.55,0.5-1.14,0.64-1.74
	c1.23-5.46,0.77-11.37-3.16-15.78c1.49-1.32,3.52,0.77,3.77,0.19c1.33-3.1,0.5-9.25-4.13-10.29c-4.7-1.06-8.72,1.26-13.35,0.69
	c-1.75-0.22-5.6-1.92-4.65-3.93c2.36-4.95,5.32-9.29,9.19-13.29c1.19,2.87,0.62,6.18,3.41,8.22c2.29,1.67,4.99,1.94,7.47,3.34
	c0.54,0.3,1.33,0.1,2.02,0.1c-0.19-2.74-1.25-5.95,0.42-8.32c1.53,2.01-0.11,5.47,1.49,6.21c3.71,1.7,7.48-3.22,8.68-7.11
	c0.83-2.68,0.82-5.5,0-8.18c-0.82-2.68-0.93-5.43-2.06-8.07c-1.02-2.38-1.04-5.22-0.81-7.8c0.28-3.1,0.8-6.15,1.22-9.21h0
	c0.46-3.29,0.8-6.58,0.62-9.96c-0.66-12.24-10.49-20.98-20.79-26.22c4.08-1.26,8.73-0.11,12.25-1.76c2.14-1-3.34-3.8-2.63-5.55
	c1.47-3.64,8.29-3.32,11.05-0.46c0.92,0.96-0.64,1.86-0.68,3.19C208.08,109.31,208.88,109.52,209.41,109.21z"/>
<path style="fill:#FFFFFF;" d="M158.46,52.57c2.05-3.5,5.44-4.79,8.13-7.36c-1.68-1.31-3.12,1.36-4.59,1.49
	c-1.27,0.11,0.65-0.66,0.02-1.07c0.4,0.11,0.63-0.12,0.83-0.42c-2.64-1.3-4.74,2.42-6.24,4.16c-0.14-0.69,0.36-1.51-0.42-2.08
	c-1.67,3.58-0.92,7.9,1.66,10.82C158.7,56.24,157.32,54.53,158.46,52.57"/>
<path style="fill:#FFFFFF;" d="M172.79,52.02c-2.82-0.89-5.93-1.33-8.47-2.72c-0.52-0.28-2.56,0.74-2.91,1.81
	c-0.5,1.53,1.21,3.16,2.72,3.48c10.26,2.23,21.14,5.1,25.77,15.17c0.77-2.7-0.94-4.93-1.53-7.43c-0.29-1.26-1.59-2.76-1.45-3.76
	c0.65-4.71-1.68-8.49-2.85-12.54c-0.77,0.57-0.11,1.72-0.5,1.91c-0.67,0.33-0.67-1.49-1.08-1.31c-1.51,0.7,0.39,2.37-0.16,3.52
	c-0.05,0.11-0.64,0.09-0.67,0.01c-0.29-0.84-0.38-1.72-0.92-2.47c-0.83,1.03-1.52,2.17-1.99,3.37c-0.7,1.78,2.07,2.92,1.38,4.46
	c-0.21,0.47-1.47,0.02-1.75-0.42C177.12,53.05,174.75,52.64,172.79,52.02"/>
<path style="fill:#FFFFFF;" d="M164.99,59.63c3.16-0.67,6.57-0.98,9.1,1.4c-2.3,1.18-4.38-1.19-6.65-0.39
	c-2.51,0.88-6.98,2.1-5.42,5.8c0.2-0.29,0.43-0.53,0.83-0.42c-0.88,2.22-0.49,4.41,0.07,6.64c0.08,0.34,0.49,0.76,0.77,0.76
	c0.28,0,0.71-0.44,0.75-0.75c0.03-0.27-0.76,0.1-1.17,0.22c0.02-1.4,0.21-5.62,0.83-6.04c0.83,0.21-0.11,4.02,0.06,5.4
	c0.04,0.32,0.41,0.62,0.75,0.38c1.62-1.18,0.45-6.41,2.11-6.41c0.22,0.96-1.31,3.92-0.42,4.79c1.91-1.98,2.94-5.1,5.87-5.6
	c8.96-1.51,14.11,7.58,16.19,15.17c2.17-4.14,0.35-9.46-2.2-13.24c-2.28-3.37-5.28-5.7-8.72-7.36c-4.53-2.18-9.59-2.61-14.4-4.15
	c-1.11-0.35-2.09-1.63-3.08-2.04c-0.99-0.41-1.12,1.38-0.98,2.2C159.67,58.26,162.31,60.19,164.99,59.63"/>
<g>
	<path style="fill:#FFFFFF;" d="M189.58,105.03c-1.99,0.6-3.95,1.62-5.91,2.62c-3.86,1.95-8.12,1-12.1,2.41
		c-1.29,0.46-2.54-0.28-3.68-0.83c-0.11-0.05-0.09-0.65-0.01-0.67c1.74-0.54,3.64,0.49,5.38-0.5c-0.2-0.29-0.43-0.53-0.83-0.42
		c0.03-0.45-0.21-1.09,0.42-1.19c8.92-1.36,15.87-7.2,22.62-12.84h0c0.07-0.06,0.15-0.12,0.22-0.18c0.27-0.23-0.07-0.69-0.37-0.71
		c-1.89-0.09-3.72,0.22-5.45,0.89h0c-1.11,0.43-2.17,1-3.18,1.7c-3.68,2.56-5.75,6.29-9.73,8.06c-3.53,1.56-7.46,1.09-11.19,1.78
		c-0.22,3.36-3.15,4.48-5.87,5.25c-3.09,0.88-5.97-0.96-9.09-1.3c-0.35-0.04-1.85-0.7-1.13-1.27c0.97-0.77,2.61,1.11,3.42,0.43
		c1.11-0.92-0.41-2.93,0.29-4.3c0.52-1.01,1.07-2.21,2.39-2.52c1.8-0.42,3.2,0.09,4.97-0.15c0.75-0.1,0.18-1.14,0.51-1.47
		c0.22-0.22,0.94-0.28,1.15,0.34c1.14,3.36-0.92,7.54-4.55,7.3c-1.38-0.09-2.87-2.06-1.77-3.6c0.32-0.45,0.82-0.38,1.24-0.48
		c0.42-0.1,1.46-0.1,2.5,0.1c0.34,0.07,0.46,0.15,0.47,0.24c0.02-0.05,0.04-0.1,0.05-0.13c0.1-0.31-0.21-1.04-0.21-1.04
		s-1.65-0.25-3.01-0.04c-0.19-0.02-1.05,0.14-1.74,1.02c-0.7,0.9-1.16,1.83-0.79,2.84c0.73,1.97,2.79,3.67,4.85,2.79
		c3.49-1.49,5.38-5.54,4.75-9.32c3.83-2.63,8.17-3.42,12.08-6.23h0c0.09-0.06,0.17-0.12,0.26-0.19c1.88-1.4,3.58-2.65,5-4.55
		c1.36-1.82,1.21-4.24,2.96-5.79c-0.66,4.61-3.26,7.93-6.68,10.53h0c-3.7,2.81-8.34,4.75-12.47,6.54c1.13,0.84,0.28,2.85,1.31,3.08
		c4.17,0.94,8.77,0.18,12.01-3.08c-1.1-0.93-2.73,0.13-3.68-0.9c-0.21-0.23-0.21-0.9,0-1.11c1.83-1.81,4.14-3.11,6.27-4.53h0
		c2.69-1.8,5.09-3.79,5.86-7.26c1.01-4.53-0.76-9.15-3.46-12.84c-1.06,1.07-0.2,2.52-0.64,3.81c-1.18,3.44-3.03,6.45-5.36,9.29
		c-0.49,0.6-0.29,2.13-0.78,3.07c-0.77,1.49-1.75,2.93-3.07,3.93h0c-0.55,0.42-1.17,0.76-1.85,0.99c-0.42,0.14-0.47-0.59-0.34-0.99
		h0c0.01-0.03,0.02-0.06,0.03-0.09c0.8-1.73,2.48-2.66,3.6-4.25c1.29-1.85,0.2-4.8-1.62-5c-0.93-0.1-2.45,1.11-3.13,2.24
		c-0.86,1.43-1.49,3.06-2.78,3.87c-1.14,0.71-2.78,0.35-3.62-1.05c-1.65,1.67-3.53,3.11-5.59,4.28h8.52
		c2.44-1.79,4.53-3.98,5.88-6.74c0.05-0.11,0.48-0.04,0.76-0.04c-0.99,2.81-2.9,5.05-5.25,6.78h0c-1.92,1.41-4.15,2.47-6.4,3.21
		c0.11-0.4-0.24-0.81-0.36-0.74c-7.02,4.46-16.71,5.37-23.71,3.57c0.04,0.01-0.44,1.64-1.53,2.37c0,0,2.05,1.75,3.09,2.58
		c0.42,0.33-0.69,0.65-0.75,0.59c-0.54-0.46-3.17-2.22-3.17-2.22c-0.73,0.88-1.25,0.99-2.81,1.61
		c10.81,11.06,27.24,14.49,41.66,9.14c1.71-0.64,3.41-1.52,5.12-2.14c3.18-1.15,6.5-1.72,9.93-2.21c2.55-0.37,4.94,1.11,7.49,0.37
		C195.41,107.07,192.76,104.08,189.58,105.03z"/>
	<path style="fill:#FFFFFF;" d="M159.1,104.94c0,0-1.04,0-1.46,0.1c-0.42,0.1,0.1,0.83,0.1,0.83s0.94-0.1,1.46-0.31
		c0.42-0.17,0.83-1.13,1.03-1.67c-0.12,0.15-0.36,0.33-0.41,0.52C159.73,104.83,159.1,104.94,159.1,104.94z"/>
</g>
<path style="fill:#FFFFFF;" d="M192.76,97.59c-4.87,4.03-9.99,7.36-15.76,9.64c5.79,0.98,10.59-2.82,15.28-6
	c2.1-1.42,3.83-3.23,4.61-5.68c0.07-0.21-0.44-0.61-0.69-0.34C195.2,96.31,193.88,96.67,192.76,97.59"/>
<path style="fill:#FFFFFF;" d="M202.41,96.07c-3.2,0.54-5.51,2.56-7.51,4.92c3.53,0.51,6.9-1.78,10.36-0.69
	c1.47,0.46,3.75,1.09,3.79,3.19c-0.4-0.11-0.81,0.26-0.74,0.35c0.75,0.98,1.93,3.37,2.65,1.26
	C212.6,100.3,207.46,95.22,202.41,96.07"/>
<path style="fill:#FFFFFF;" d="M196.18,104.37c1.43-0.73,3-0.83,4.57-1.24c2.69-0.7,5.23,0.6,7.89,0.35
	c-4.23-4.36-11.19-2.1-15.82,0.42C193.88,104.46,194.84,105.06,196.18,104.37"/>
<path style="fill:#FFFFFF;" d="M46.4,50.07c-2.15-1.52-5.92-5.28-6.94-8.31c-0.03-0.08-0.53,1.03,0.23,2.69
	c1.62,3.57,5.99,6.17,7.05,10.42c0.24,0.95,0.09,2.42,0.05,3.67c-0.01,0.28,0.42,0.62,0.73,0.37C50.42,56.53,49.45,52.23,46.4,50.07
	"/>
<path style="fill:#FFFFFF;" d="M44.2,46.88c0.48,0.57,3.98,3.61,4.2,3.29c0.4-0.6-7.41-7.89-8.46-9.67
	c-0.13-0.22-0.19,1.16,0.78,2.38C41.23,43.53,43.68,46.27,44.2,46.88"/>
<path style="fill:#FFFFFF;" d="M25.71,58.64c3.89-2.42,2.45-7.73-0.23-10.93c-1.67,3.71-1.71,7.83-2.07,11.69
	C23.31,60.52,25.17,58.97,25.71,58.64"/>
<path style="fill:#FFFFFF;" d="M20.9,61.02c2.47-2.91,2.22-6.5,2.84-10c0.04-0.26-0.45-0.62-0.69-0.35
	c-2.56,2.97-6.45,7.49-2.97,11.19C20.36,61.58,20.64,61.32,20.9,61.02"/>
<path style="fill:#00502F;" d="M104.98,295.68c7.7-3.12,20.98-11.06,35.34-23.55c16.3-14.18,21.23-28.93,23.73-35.17
	c2.89-7.97,3.63-14.99,3.78-23.42c0.05-2.91,0.02-80.92,0.02-80.92c-14.15,0-39.96,0-62.64,0.05c-1.07,0-1.67,1.83-2.51,2.78
	c-0.89,1.01-4.95,0.54-5.91,1.17c-1.51,0.99-5.62,3.36-5.62,3.36c-2.76-1.28-6.95-2.91-9.03-3.47c-1.7-2.01-1.5-1.8-3.79-3.47
	l-37.94,0.03c0,0-0.14,76.77,0.01,80.51c0.35,8.42,0.89,15.45,3.78,23.42c2.5,6.24,7.63,20.37,23.93,34.55
	C82.5,284.02,97.28,292.56,104.98,295.68"/>
<path style="fill:none;stroke:#000000;stroke-width:1.0626;" d="M104.98,295.68c7.7-3.12,20.98-11.06,35.34-23.55
	c16.3-14.18,21.23-28.93,23.73-35.17c2.89-7.97,3.63-14.99,3.78-23.42c0.05-2.91,0.02-80.92,0.02-80.92c-14.15,0-39.96,0-62.64,0.05
	c-1.07,0-1.67,1.83-2.51,2.78c-0.89,1.01-4.95,0.54-5.91,1.17c-1.51,0.99-5.62,3.36-5.62,3.36c-2.76-1.28-6.95-2.91-9.03-3.47
	c-1.7-2.01-1.5-1.8-3.79-3.47l-37.94,0.03c0,0-0.14,76.77,0.01,80.51c0.35,8.42,0.89,15.45,3.78,23.42
	c2.5,6.24,7.63,20.37,23.93,34.55C82.5,284.02,97.28,292.56,104.98,295.68z"/>
<path style="stroke:#000000;stroke-width:1.5932;" d="M61.29,161.97l-11.66,4.78l2.74-11.99c0,0-3.91-6.24-6.12-8.13l9.4-0.26
	l5.51-10.55c0.18-0.21,5.25,9.64,5.25,9.64c0.5,0.07,9.03,0.9,9.03,0.9c0,0.55-5.67,8.62-5.67,8.62c0.05,0.54,1.92,7.41,2.59,12.04
	L61.29,161.97z"/>
<polyline style="fill:#FFFFFF;" points="60.87,138.86 60.87,151.35 65.34,146.87 72.32,147.6 62.12,153.22 70.44,164.46 
	61.28,160.3 61.28,153.85 51.92,163.42 54.21,154.68 59.62,152.6 49.84,147.81 56.71,147.39 60.87,138.86 "/>
<path style="stroke:#000000;stroke-width:1.5932;" d="M150.02,204.11c2.29-0.21,3.75,0.21,5.19,0.67c1.4,0.27,2.92,1.41,4.39,0.76
	l0,5.6c-0.91,0.7-2.89,0.05-4.26-0.6c-1.15-0.54-5.25-0.64-5.25-0.64H150l-0.1,3.11l0.11,0.26c2.29-0.21,3.75,0.21,5.19,0.67
	c1.4,0.27,2.92,1.41,4.39,0.76l0,5.6c-0.91,0.7-2.89,0.05-4.26-0.6c-1.15-0.54-5.15-0.74-5.15-0.74l0.01,6.6l-38.97-0.16
	c-1.25,0.62-4.16,1.3-5.83,1.3c-2.94,0-3.37-1.29-3.37-1.29c-18.18,0.04-41.53,0.09-41.53,0.09l0.01-5.68
	c-0.63-0.46-3.65-0.02-4.04-0.72l0.07-6.87c0,0,2.89-0.04,3.89-0.58c0,0,0.12-1.84-0.06-1.98l-3.87-0.11l0.05-6.24l3.6,0.23
	c0.55-0.75,0.1-2.31,0.1-2.31c-1.07,0.1-2.72,0.19-3.68-0.09l-0.08-7c0.28-0.5,2.76,0.11,3.53-0.03c0.83-0.16,0.12-2.35,0.01-2.35
	c-1.1,0-3.88-0.1-3.88-0.1c-0.08-1.37-0.08-3.45-0.06-6.52c0.01-1.04,2.82-0.14,3.69-0.54l0.01-1.72c-0.78-0.23-2.68-0.29-3.51-0.29
	c0-3.95-0.02-7.78-0.02-7.78l3.4,0.02l-0.08-4.53c0,0,8.04-0.04,13.14-0.02c7.08,0.03,15.22,0.07,15.22,0.07
	c4.97-0.98,14.13-1.08,16.61-0.2c0.85,0.3,3.2-1.03,4.19-1.04c4.15-0.05,5.92,0.57,11.56,1.08c0,0,10.49,0.01,20.29,0.06
	c0,0,2.02-1.66,3.46-1c2.76,1.26,4.05,0.9,4.86,1.2c1.13,0.41,1.23,1.65,1.02,2.56c2.29-0.21,3.75,0.21,5.19,0.67
	c1.41,0.27,2.92,1.41,4.39,0.76l0,5.6c-0.91,0.7-2.89,0.05-4.26-0.6c-1.15-0.54-5.26-0.64-5.26-0.64l0,5.35
	c2.29-0.21,3.75,0.21,5.19,0.67c1.4,0.27,2.92,1.41,4.39,0.76l0,5.6c-0.91,0.7-2.89,0.05-4.26-0.6c-1.15-0.54-5.25-0.64-5.25-0.64
	h-0.1l0.06,4.61l-0.02,0.22c2.29-0.21,3.75,0.21,5.19,0.67c1.4,0.27,2.92,1.41,4.39,0.76l0,5.6c-0.91,0.7-2.89,0.05-4.26-0.6
	c-1.15-0.54-5.25-0.64-5.25-0.64h-0.14V204"/>
<path style="fill:#FFFFFF;" d="M67.11,173.2v46.62c0,0,6.66,0.21,10.61-0.62c3.95-0.83,7.49-2.91,12.07-3.33
	c4.58-0.42,6.45-0.42,9.16,0.42c2.7,0.83,5.62,2.29,5.62,2.29v-46c0,0-2.29-2.5-7.28-2.08c-5,0.42-9.57,1.66-13.53,2.08
	C79.81,172.99,67.11,173.2,67.11,173.2"/>
<path style="fill:#FFFFFF;" d="M105.82,218.37c5.41-1.66,9.56-2.29,14.52-1.07c7.62,1.87,15.85,1.95,23.35,1.9v-47.45
	c-5.34-0.39-10.42,1.77-15.82,1.23c-7.15-0.72-13.09-3.73-20.58-2.16c-0.5,0.1-1.56,1.12-1.56,1.56
	C105.82,182.36,105.82,209.42,105.82,218.37"/>
<path d="M79.13,184.79c0,0,0.55-0.35,0.94,0.52c0.26,0.58-0.26,1.21-0.26,1.21c-0.34,0.38-1.43,0.59-1.87,0.59
	c-2.03,0-3.84-1.77-3.84-4.47c0-2.7,1.65-4.68,3.68-4.68c1.3,0,1.82-0.28,2.47,1.07c0,0,0.34,0.62-0.13,1.09
	c-0.36,0.37-0.86-0.15-0.86-0.15c-0.02-0.96-0.32-1.13-1.54-0.97c-0.83,0.12-2.29,1.82-2.29,2.82c0,0,1.98,0.3,2.29,0.1
	c0.31-0.2,0.31-0.48,0.62-0.5c0.73-0.06,0.36,2,0.05,2c-0.31,0-0.05-0.34-0.73-0.35c-0.94-0.01-2.27-0.04-2.27-0.04
	c0.15,1.66,1.15,2.91,2.32,2.91c0.7,0,0.81,0.16,1.25-0.57L79.13,184.79 M87.72,182.78c0,1.14,0,1.87,0,2.5
	c0,0.62-0.73,0.73-0.94,1.14c-0.21,0.42-0.21,0.73,0.21,0.73c0.42,0,2.18,0,2.81,0c0.62,0,0.47-0.52,0.16-0.94
	c-0.31-0.42-0.78-0.42-0.78-1.04c0-0.62,0-5.36,0-5.67c0-0.68,1.67-0.26,1.87,0c0,0,0,0.99,0.52,0.99c0.56,0,0.21,0.31,0.47,0.05
	c0.22-0.22,0.42-1.51-0.1-2.03c-0.52-0.52-0.16-0.42-1.41-0.42c-1.98,0-4.47,0-5.1,0c-0.62,0-1.3,0.68-1.3,1.3c0,0.62,0,0.78,0,0.78
	c0.68,0.42,1.09,0.26,1.09-0.26c0-0.52,0.47-0.78,1.2-0.78c0.73,0,1.3,0.21,1.3,0.94C87.72,180.8,87.72,182.78,87.72,182.78
	 M99.68,197.64l0.05,0.46c-0.43,0.69-0.8,0.9-1.5,0.9c-1.17,0-2.18-1.21-2.33-2.8c-0.03-0.38,2.12-0.06,2.12-0.06
	c0.36,0.48,0.36,0.44,0.68,0.44c0.31,0,0.36-2.23,0.05-2.23c-0.31,0-0.36,0.29-0.68,0.48c-0.31,0.19-2.03-0.1-2.03-0.1
	c0-0.96,1.3-2.49,2.13-2.61c0.8-0.11,1.42,0.71,1.85,1.6c0,0,0.33,0.22,0.75-0.05c0.41-0.27,0.03-1.01,0.03-1.01
	c-0.65-1.3-1.38-1.47-2.68-1.47c-2.03,0-3.47,2.05-3.47,4.65c0,2.59,1.65,4.28,3.68,4.28c1.13,0,1.72-0.07,2.39-1.09
	c0,0,0.52-1.49-0.42-1.68C99.99,197.26,99.68,197.64,99.68,197.64 M78.14,199.84c0.1,0.31-0.31,0.62-0.31,0.62h-2.39
	c0,0,0.83-0.73,0.62-1.14c-0.21-0.42-0.73-1.41-0.73-1.41l-2.91,0.05l-0.62,1.56l0.42,0.42l0.1,0.52h-3.12c0,0-0.1-0.83,0.52-0.94
	c0.62-0.1,1.14-0.42,1.35-1.04c0.21-0.62,1.67-5.2,1.87-5.72c0.21-0.52-0.62-0.73-0.31-1.14h1.56c0,0,3.02,7.39,3.33,7.7
	C77.83,199.63,78.04,199.53,78.14,199.84z M74.81,196.82l-1.14-2.55l-0.83,2.55H74.81z M79.24,205.2c0-0.62,0.26-0.36,0.57-0.78
	c0.31-0.42,0.1-0.94-0.52-0.94c-0.62,0-1.61,0-2.03,0c-0.42,0-0.42,0.52-0.21,0.94c0.21,0.41,0.88,0.1,0.88,0.73
	c0,0.62,0,2.18,0,3.33c0,1.14,0,1.87,0,2.5c0,0.62-0.47,0.73-0.68,1.14c-0.21,0.42-0.21,0.73,0.21,0.73c0.42,0,1.35,0,1.98,0
	c0.62,0,0.83-0.31,0.52-0.73c-0.31-0.42-0.83-0.62-0.83-1.25L79.24,205.2 M80.33,200.26H81c0,0,3.02-7.18,3.33-7.49
	c0.31-0.31,0.73-0.05,0.83-0.36c0.1-0.31,0.1-0.78,0.1-0.78h-3.54c0,0-0.01,0.39,0.21,0.67c0.17,0.21,1.02,0.29,0.93,0.47
	c-0.21,0.42-2.29,5.57-2.29,5.57l-0.31-0.57l-1.87-5.2l0.42-0.42l0.1-0.52H75.8c0,0-0.1,0.83,0.52,0.94
	c0.62,0.1,1.14,0.42,1.35,1.04c0.21,0.62,1.87,5.26,2.08,5.78C80.03,200.06,80.11,199.96,80.33,200.26 M86.59,196.25l0.04-1.16
	c0-0.96,1.09-2.56,2.44-2.56c0.81,0,1.37,0.29,1.8,1.18c0,0,0.7-0.02,1.12-0.31c0.75-0.52,0.08-0.75,0.08-0.75
	c-0.66-1.3-0.91-1.32-2.21-1.32c-3.12,0-4.77,1.79-4.77,4.39c0,2.59,1.02,4.33,4.15,4.33c1.13,0,2.08-0.54,2.76-1.56
	c0,0,0.1-0.92,0.19-1.76c0.02-0.21,0.42-0.45,0.52-0.62c0.3-0.51,0.47-0.79,0.12-0.86c-0.32-0.07-2.91,0-2.91,0l0.1,0.83
	c-0.12,0.19,1.12,0.26,1.01,0.63c-0.07,0.23-0.24,0.94-0.32,1.19c-0.24,0.78-0.82,1.12-1.21,1.12
	C87.4,199,86.74,197.84,86.59,196.25 M76.06,209.62c0.1,0.94-0.31,2.13-0.73,2.65c-0.42,0.52-0.62,0.99-1.35,0.99
	c-0.62,0-3.23,0-3.64,0c-0.42,0-0.42-0.31-0.21-0.73c0.21-0.42,0.99-0.31,0.99-0.94c0-0.62,0-1.56,0-2.71c0,0,0-2.39,0-3.12
	c0-0.42-0.33-0.94-0.88-0.94c-0.31,0-0.52-0.47-0.1-0.57c0.42-0.1,0.21-0.05,0.21-0.05c0.62,0,1.04,0,3.02,0
	c1.25,0,1.35,0.21,1.87,0.73c0.52,0.52,0.52,1.41,0.47,1.72c-0.1,0.62-0.78,1.3-0.78,1.3S75.96,208.69,76.06,209.62z M72.32,207.08
	c0,0,0.73,0.16,1.25,0.05c0.52-0.1,0.78-0.68,0.78-0.68c0.16-0.42-0.26-1.2-0.26-1.2c-1.14,0-1.77,0-1.77,0
	C72.32,205.45,72.32,207.08,72.32,207.08z M74.29,208.58c-0.42-0.52-1.98-0.31-1.98-0.31c0,0.89,0,2.79,0,3.02
	c0,1.04,0.52,0.99,1.35,0.94c0,0,0.99-0.52,0.99-1.25C74.66,210.25,74.71,209.11,74.29,208.58z M102.91,213.32
	c-0.52,0.1-1.09,0.36-1.56-0.1c-0.47-0.47-1.09-0.78-1.2-1.2c-0.1-0.42-0.1-0.57-0.16-0.83c-0.14-0.71-0.57-2.08-0.99-2.6
	c-0.42-0.52-1.2-0.31-1.2-0.31c0,0.88,0,2.48,0,2.71c0,0.62,0,0.34,0.68,0.67c0.21,0.1,0.52,1.04-0.1,1.04c-0.62,0-2.08,0-2.5,0
	c-0.41,0-0.41-0.31-0.21-0.73c0.21-0.42,0.88-0.26,0.88-0.88c0-0.62,0-1.61,0-2.76c0,0,0-2.39,0-3.12c0-0.42-0.31-0.73-0.83-0.94
	c-0.52-0.21-0.73-0.42-0.31-0.52c0.41-0.1,0.41-0.1,0.41-0.1c0.62,0,0.57,0,2.55,0c1.25,0,1.82,0.1,2.34,0.62
	c0.52,0.52,0.62,1.57,0.57,1.87c-0.1,0.62-1.14,2.08-1.14,2.08s0.88,1.09,0.99,2.03c0.1,0.94,0.52,1.4,1.25,2.08l0.73,0.36
	C103.17,213.01,103.43,213.21,102.91,213.32z M99.58,205.1c-0.46-0.59-1.77-0.62-1.77-0.31c0,0.2,0,2.29,0,2.29s0.73,0.16,1.25,0.05
	c0.52-0.1,0.62-0.57,0.62-0.57C99.84,206.14,99.94,205.57,99.58,205.1z M83.55,208.12c0,1.14,0,1.87,0,2.5
	c0,0.62-0.73,0.73-0.94,1.14c-0.21,0.42-0.21,0.73,0.21,0.73c0.42,0,2.18,0,2.81,0s0.47-0.52,0.16-0.94
	c-0.31-0.42-0.78-0.42-0.78-1.04c0-0.62,0-5.36,0-5.67c0-0.68,1.67-0.26,1.87,0c0,0,0,0.57,0.52,0.57c0.56,0,0.21,0.31,0.47,0.05
	c0.22-0.22,0.42-1.09-0.1-1.61c-0.52-0.52-0.16-0.42-1.4-0.42c-1.98,0-4.47,0-5.1,0c-0.62,0-1.3,0.68-1.3,1.3
	c0,0.62,0.1,0.47,0.1,0.47c0.68,0.42,0.99,0.36,0.99-0.16c0-0.52,0.47-0.57,1.2-0.57s1.3,0.21,1.3,0.94
	C83.55,206.14,83.55,208.12,83.55,208.12 M91.72,212.12h0.68c0,0,2.39-7.18,2.71-7.49c0.31-0.31,0.73-0.05,0.83-0.36
	c0.1-0.31,0.1-0.78,0.1-0.78h-2.97c0,0-0.27,0.39-0.05,0.67c0.17,0.21,0.71,0.29,0.62,0.47c-0.21,0.42-1.66,5.57-1.66,5.57
	l-0.31-0.57l-1.2-5.2l0.42-0.42l0.1-0.52h-3.12c0,0-0.1,0.83,0.52,0.94c0.62,0.1,0.88,0.42,1.09,1.04c0.21,0.62,1.46,5.26,1.66,5.78
	C91.43,211.92,91.5,211.83,91.72,212.12"/>
<path d="M120.86,196.87c0,0,0.5,0,0.83,0c0.57,0,0.31,1.1,0.31,1.1c-0.67,1.06-1.09,1.74-3.02,1.74c-2.03,0-3.63-1.67-3.63-4.38
	c0-2.71,1.33-4.64,3.37-4.64c1.3,0,2.49,0.14,3.15,1.49c0,0,0.67,0.24-0.08,0.79c-0.42,0.3-0.96,0.11-0.96,0.11
	c-0.42-0.92-0.49-1.36-2.11-1.23c-0.84,0.06-2.03,1.56-2.03,2.56c0,0,1.51,0.2,1.82,0c0.31-0.2,0.52-0.45,0.83-0.4
	c0.62,0.1,0.31,1.9,0,1.9c-0.31,0-0.52,0.29-0.73-0.19c-0.04-0.09-2.01-0.32-1.96,0.16c0.15,1.66,1.21,2.87,2.38,2.87
	c0.7,0,1.28-0.52,1.71-1.25L120.86,196.87 M135.79,211.76h-2.55c0,0-0.59-0.19-0.38-0.43c0.2-0.23,0.95-0.25,0.85-0.46
	c-0.21-0.42-0.78-1.35-0.78-1.35h-3.23l-0.47,1.4l0.52,0.57l-0.1,0.31H127c0,0-0.36-0.62,0.26-0.73c0.62-0.1,1.14-0.42,1.35-1.04
	c0.21-0.62,1.66-5.2,1.87-5.72c0.21-0.52-0.31-0.73,0-1.14h1.09c0,0,3.38,7.39,3.69,7.7c0.31,0.31,0.52,0.1,0.62,0.42
	C136,211.6,135.79,211.76,135.79,211.76z M132.41,208.38l-1.25-2.91l-0.99,2.91H132.41z M125.28,204.94c0-0.62,0.83-0.83,1.14-1.25
	c0.31-0.42,0.1-0.73-0.52-0.73c-0.62,0-2.08,0-2.5,0c-0.42,0-0.42,0.31-0.21,0.73c0.21,0.42,0.94,0.52,0.94,1.14
	c0,0.62,0,1.77,0,2.91c0,1.14,0,1.87,0,2.5c0,0.62-0.73,0.73-0.94,1.14c-0.21,0.42-0.21,0.73,0.21,0.73c0.42,0,1.87,0,2.5,0
	c0.62,0,0.83-0.31,0.52-0.73c-0.31-0.42-1.14-0.62-1.14-1.25V204.94 M132.98,179.13c0-0.62,0.52-0.42,0.83-0.83
	c0.31-0.42,0.42-0.83-0.21-0.83c-0.62,0-2.08,0-2.5,0c-0.42,0-0.42,0.31-0.21,0.73c0.21,0.42,0.94,0.21,0.94,0.83
	c0,0.62,0,2.08,0,3.23s0,1.14,0,1.77c0,0.62-0.73,0.52-0.94,0.94c-0.21,0.42-0.21,0.73,0.21,0.73c0.42,0,1.87,0,2.5,0
	c0.62,0,0.83-0.31,0.52-0.73c-0.31-0.41-1.14-0.41-1.14-1.04V179.13 M122.86,182.09c0,0-0.07-0.93,0.03-1.65
	c0.15-1.03,1.2-1.98,2.03-2.1c0.8-0.11,1.58,0.53,2,1.48c0,0,0.39,0.3,0.81-0.01c0.75-0.57-0.54-1.91-0.54-1.91
	c-0.86-0.48-1.17-0.57-2.47-0.57c-1.14,0-3.21,1.22-3.21,4.02c0,2.8,1.54,4.04,3.58,4.04c2.18,0,2.39-0.69,2.76-0.97
	c0,0,0.99-1.46,0.05-1.66c-0.32-0.07-1.04,0.88-1.04,0.88c-0.43,0.75-1.06,0.6-1.76,0.6C123.9,184.23,123,183.81,122.86,182.09
	 M123.36,191.72c0,0,0.36,0,0.68,0.1c0.31,0.1,0.47,0.73,0.57,0.83c0.1,0.1,0,6.04,0,6.56c0,0.52-0.5,0.44-0.36,0.83
	c0.1,0.31,1.46,0.21,1.77,0.1c0.31-0.1-0.42-0.94-0.42-1.04c0-0.1-0.03-5.49-0.03-5.49l5.12,6.64h0.99c0,0,0-8.22,0-8.64
	c0-0.42,0.1,0.1,0.52-0.31c0.42-0.42,0.36-0.83-0.05-0.83c-0.42,0-1.72-0.16-2.29,0c-0.45,0.12-0.21,0.57,0.21,0.78
	c0.42,0.21,0.78,0.05,0.78,0.57c0,0.52,0,6.04,0,6.04s-5.15-6.76-5.57-6.97c-0.42-0.21-1.2-0.21-1.82-0.1
	c-0.62,0.1-0.21,0.21-0.21,0.62 M116.18,179.13c0.21-0.26,0.73-0.52,1.46-0.16c0.73,0.36,0.68,1.14,0.68,1.4
	c0,0.26,0.78,0.21,0.94,0c0.16-0.21,0.1-1.46-0.47-2.13c-0.29-0.34-0.73-0.36-1.46-0.52c-0.59-0.13-1.66,0.21-2.13,0.52
	c-0.47,0.31-0.99,1.14-0.99,1.93c0,0.78,0.31,1.3,1.14,1.72c0.83,0.42,1.61,0.62,2.19,1.25c0.57,0.62,0.26,1.2,0.1,1.51
	c-0.16,0.31-1.56,0.21-1.87,0.16c-0.31-0.05-0.21-0.57-0.31-0.99c-0.1-0.42-0.68-0.36-0.88-0.1c-0.21,0.26-0.36,1.04-0.1,1.51
	c0.17,0.32,0.31,0.67,1.2,0.73c0.88,0.05,1.46,0.26,2.55-0.26c1.09-0.52,1.35-2.03,1.04-2.91c-0.31-0.88-1.09-1.3-2.5-1.98
	C115.35,180.12,115.79,179.62,116.18,179.13 M116.96,207.7c0,1.14,0,1.87,0,2.5c0,0.62-0.73,0.73-0.94,1.14
	c-0.21,0.42-0.21,0.73,0.21,0.73c0.42,0,2.18,0,2.81,0c0.62,0,0.47-0.52,0.16-0.94c-0.31-0.42-0.78-0.42-0.78-1.04
	c0-0.62,0-5.36,0-5.67c0-0.68,1.67-0.47,1.87-0.21c0,0,0,0.62,0.52,0.62c0.56,0,0.21,0.31,0.47,0.05c0.22-0.22,0.42-0.94-0.1-1.46
	c-0.52-0.52-0.16-0.42-1.4-0.42c-1.98,0-4.47,0-5.1,0s-1.3,0.68-1.3,1.3c0,0.62,0,0.42,0,0.42c0.31,0.42,1.09,0.42,1.09-0.1
	c0-0.52,0.47-0.57,1.2-0.57c0.73,0,1.3,0.21,1.3,0.94C116.96,205.72,116.96,207.7,116.96,207.7"/>
<path style="stroke:#000000;stroke-width:1.5932;" d="M109.46,229.51c4.07-0.02,11.63,2.17,17.88,9.37
	c1.27,1.46,1.84,3.35,2.43,5.23c0.74,2.34,5.28,0.56,5.17,2.96c-0.05,1.18-2.41,2.69-2.14,4.12c2.02,10.73,2.27,20.75-8.4,25.02
	c-0.48,0.19,0.07,2.92-0.43,4.11c-0.16,0.38,0,1.23-0.67,1.28c-1.38,0.1-2.87-1.1-3.62-0.84c-1.8,0.6-3.18,2.75-5.15,3.72
	c-0.45,0.22-2.15,0.77-2.47,0.83c-4.4,0.8-8.47,0.8-12.88,0c-0.33-0.06-0.53-0.59-0.86-0.7c-0.5-0.17-1.18,0.12-1.59-0.14
	c-1.55-0.97-2.85-2.11-4.35-3.03c-1.72-1.05-4.1,2.09-5.4,0.39c-0.9-1.18,0.31-4.05-0.61-4.82c-6-5.05-7.04-9.86-8.59-15.01
	c-1.08-3.6-0.16-6.9,1.07-10.8c0.44-1.4-1.78-3.05-1.86-4.54c-0.1-2.1,3.65-0.41,4.1-2.52c1.67-7.85,10.17-11,16.52-13.4
	c0.92-0.35,3.31-0.43,4.2-1.11c0.57-0.44,1.93-2,2.24-2.62c0.31-0.62,1.14-1.46,1.66-1.25c0.52,0.21,1.25,1.67,2.08,2.39
	C108.63,228.88,108.2,229.51,109.46,229.51z"/>
<path style="fill:#FFFFFF;" d="M102.39,231.79c1.25,1.46,2.5,2.39,2.71,5.1c0.21,2.71-0.31,6.24-0.42,7.6
	c-0.1,1.35-0.52,2.19,0.73,2.29c1.25,0.1,1.46-1.04,1.35-1.87c-0.1-0.83-0.83-5.72-0.52-8.01c0.31-2.29,2.28-5.7,5.62-5.5
	c4.98,1.21,10.07,4.01,14.1,8.65c1.19,1.37,1.72,3.13,2.27,4.89c0.18,2.48,0.34,3.4-1.94,4.88c-2.28,1.47-5.64,2.18-6.88,2.74
	c-1.24,0.55-2.17,1.11-1.66,2.25c0.5,1.15,2.4,0.32,3.08-0.16c0.68-0.49,3.96-3.11,6.21-3.61c2.2-0.49,3.19,0.64,4.6,3.67
	c1.25,8.28,1.03,16.18-7.8,19.72c-1.47,0.37-3.03,0.37-4.34-0.55c-2.22-1.56-2.84-3.92-3.6-5.04c-0.77-1.12-1.28-1.72-2.31-1.02
	c-1.04,0.7-0.21,1.99,0.39,2.58c0.6,0.58,3.09,2.83,4.01,5.23c0.42,1.08,0.22,1.56-0.03,2.86c-0.58,1.51-2.14,3.3-3.99,4.21
	c-0.42,0.21-2.01,0.72-2.31,0.78c-4.12,0.75-7.92,0.75-12.04,0c-0.31-0.05-1.91-0.55-2.3-0.79c-1.44-0.9-2.84-1.85-3.86-3.15
	c-0.44-1.31-1.17-2.87-0.64-3.91c1.06-2.05,3.93-4.65,4.53-5.23c0.6-0.59,1.33-1.88,0.29-2.58c-1.04-0.7-1.55,0.31-2.31,1.43
	c-0.77,1.12-1.13,3.6-3.29,5.24c-2.04,1.55-3.28,0.92-5.12,0.48c-4.4-3.7-5.77-8.21-7.31-13.3c-1.01-3.37-0.32-5.82,0.9-9.26
	c0.75-0.72,1.51-1.99,3.75-1.41c2.24,0.58,5.32,2.99,6.05,3.41c0.73,0.41,2.41,0.99,2.79-0.2c0.38-1.19-0.65-1.65-1.94-2.07
	s-3.49-0.81-5.83-2.2c-1.97-1.17-2.39-2.84-2.61-4.97c1.56-7.34,9.51-10.28,15.45-12.53c0.86-0.33,3.68-1.22,4.35-0.41"/>
<g>
	<path d="M124.92,268.32c-0.38-4.4-0.59-5.37,2.2-9.54c0.69-1.04,0.34-1.99,0.28-2.95c-0.04-0.68-1.73-0.86-1.03-1.53
		c0.29-0.28,1.49-0.56,1.89,0.3c1.39,3.02-0.76,5.7-1.85,8.37c-0.93,2.29,0.09,5.03-0.75,7.36c-0.56,1.57-1.84,2.23-3.56,1.64
		c-0.09-0.03-0.03-0.47-0.03-0.75C123.64,271.56,125.06,269.93,124.92,268.32"/>
	<path d="M128.6,267.1c-0.01,1.51,0.27,3.04-1.16,4.09c-0.19,0.14-0.64,0.14-0.73,0c-0.2-0.3-0.07-0.79-0.07-1.21
		c0.4,0.11,0.88-0.64,0.87-0.94c-0.11-3.01-0.82-5.95,1.86-10.41c0.26-0.43,0.49-0.52,0.8-0.21
		C128.51,263.94,128.61,264.67,128.6,267.1"/>
	<path d="M107.47,238.06c0.05-0.41,1.08-2.3,2.03-2.36c5.26-0.34,2.74,2.92,7.06,4.86c2.48,1.12,6.36,1.08,8.2,2.74
		c1.67,1.5,0.93,2.96-0.13,3.6c-0.08,0.05-0.45-0.15-0.71-0.26c0.9-1.34,0.24-2.96-1.31-3.43c-5.03-1.56-8.06-1.22-9.67-4.89
		c-0.5-1.15-1.45-1.48-2.21-1.47c-0.68,0.01-1.87,0.75-2.05,2.59c-0.1,1.09,0.05,2.91,0.1,5.05c0.05,2.13-0.67,3.59-1.56,4.01
		c-0.88,0.42-2.39,0.26-3.12-0.1c-0.73-0.36-1.14-1.25-1.3-2.03c-0.16-0.78,0.16-3.8,0.26-5.46c0.1-1.67-0.05-2.39-0.52-3.38
		c-0.47-0.99-2.18-0.78-2.55-0.42c-0.36,0.36-2.08,2.45-3.02,3.75c-0.94,1.3-2.81,2.24-4.58,2.76c-1.77,0.52-3.28,0.21-4.74,1.09
		c-1.46,0.88-1.09,1.98-0.52,3.02c0.57,1.04,1.61,0.78,3.17,1.35c1.56,0.57,3.54,1.72,4.16,2.65c0.62,0.94,0.94,1.51,0.94,2.76
		c0,1.25-1.04,2.03-1.72,2.5c-0.68,0.47-2.29,0.31-3.23,0.05c-0.94-0.26-2.34-1.51-3.02-2.13c-0.68-0.62-1.77-0.88-2.4-0.81
		c-1.54,0.5-1.95,2.62-1.03,3.95c2.52,3.62,2.77,5.08,2.44,10.09c-0.08,1.25,0.18,2.91,0.87,3.58c0.7,0.67,3.14-0.1,2.75,1.02
		c-0.13,0.39-2.33,0.74-3.08,0.16c-3.29-2.53-1.2-6.62-1.59-9.48c-0.33-2.45-2.58-4.32-3.02-6.76c-0.29-1.65,0.2-3.19,2-3.4
		c1.45-0.17,2.44-0.38,3.53,0.4c1.09,0.78,1.51,1.56,2.86,1.98c1.35,0.42,2.24,0.42,2.65,0.05c0.42-0.36,0.83-1.14,0.52-2.03
		c-0.31-0.88-0.78-1.82-2.13-2.5c-1.35-0.68-1.98-0.88-3.33-1.3c-1.35-0.42-2.81-1.3-3.12-2.24c-0.31-0.94-0.36-2.81,1.09-3.69
		c1.46-0.88,3.28-1.3,4.42-1.51c1.14-0.21,3.33-0.78,4.32-1.72c0.99-0.94,2.65-2.91,2.97-3.49c0.31-0.57,1.4-1.87,2.24-2.03
		c0.83-0.16,2.5-0.05,2.97,0.88c0.47,0.94,0.99,2.7,0.88,3.95c-0.1,1.25-0.26,4.47-0.26,5.36s0.1,1.93,1.04,2.29
		c0.94,0.36,1.66,0,1.98-0.88c0.31-0.88,0.47-2.39,0.36-4.27C107.28,240.64,107.36,239.12,107.47,238.06"/>
	<path d="M117.59,238.12c2.57,1.64,4.31,1.84,4.26,1.65c0.06,0.23,0.4,0.96,0.25,0.99c-0.36,0.07-1.8-0.13-2.18-0.29
		c0.26-0.33-1.71-0.54-2-0.64c-2.83-1.03-2.62-2.21-3.43-3.56c-0.3-0.4-0.29-0.65,0.11-0.82
		C116.23,236.76,116.13,237.19,117.59,238.12"/>
	<path d="M93.28,240.42c1.47-0.36,3.13-1.27,3.81-2.9c0.09-0.22-0.02-0.66-0.17-0.71c-0.34-0.13-0.78,0.12-1.19,0.21
		c0.4,0.72-3.27,2.3-2.54,2.16c-1.68,0.33-4.47,0.26-6.37,2.12c-1.24,1.5,0.22,1.4,0.14,1.35
		C91.96,239.75,90.93,240.99,93.28,240.42"/>
	<path d="M83.31,268.34c-0.12-2.63-0.28-5.02-0.52-5.54c-0.62-1.38-1.75-2.5-1.03-4.12c0.1-0.21,0.49-0.44,0.63-0.37
		c0.33,0.16,0.45,0.65,0.66,1.01c-0.41,0.1,0.02,1.57,0.18,1.82c1.59,2.55,1.25,4.78,1.03,6.67c0.12,0.4,0.27,0.76,0.12,1.12
		c-0.16,0.36-0.94,0.31-0.99,0C83.35,268.63,83.31,268.34,83.31,268.34"/>
	<path d="M118.03,269.51c-0.69-1.73-1.7-2.5-3.44-2.95c-0.07-0.02-0.08-0.63,0.01-0.66c3.05-1.05,4.71,2.29,5.38,4.91
		C118.89,271.06,118.29,270.16,118.03,269.51"/>
	<path d="M114.18,277.99c0.22,0.02,0.64-0.12,0.66-0.06c0.62,1.97-1.78,2.25-3.24,2.74c-1.19,0.4-2.46-0.32-3.73-0.54
		c-3.76-0.64-6.95,2.7-10.88,0.85c-1.31-0.62-2.76-1.52-2.52-2.88c0.1-0.26,0.16-0.68,1.04,0.4c0.79,0.97,1.53,1.56,2.83,1.82
		c2.42,0.48,4.41-0.33,6.67-1.09c2.94-0.99,6.57,1.88,9.08-0.95C114.17,278.18,114.19,278.08,114.18,277.99"/>
	<path d="M113.89,277.56c-0.52,0.18-0.96,0.29-1.11,0.32c-2.84,0.48-4.3-0.62-6.95-0.49c-3.41,0.17-7.65,3.09-9.74-0.48
		c-1.61-2.76,1.61-4.5,3.36-6.63c0.42-0.51,0.14-1.55,0.14-2.38c1.84,0.51,1.11,2.27,0.65,3.25c-0.82,1.77-3.45,2.51-3.39,4.66
		c0.02,0.77,1.11,1.37,1.94,1.54c1.76,0.37,3.26-0.68,4.99-1c2.96-0.55,5.93,1.07,8.63,0.06c1.93-0.72,0.72-3.71-0.61-5.29
		c-0.93-1.11-1.34-4.51,1.11-4.05c-0.47,0.62-1.17,1.37-0.71,2C114.01,271.6,115.61,274.77,113.89,277.56"/>
	<path d="M117.22,253.72c0.26-1.64,0.8-1.74,3.02-2.27c1.47-0.36,3.13-1.27,3.81-2.9c0.09-0.22-0.02-0.66-0.17-0.71
		c-0.34-0.13-0.78,0.11-1.19,0.21c0.4,0.72-2.64,2.09-1.91,1.95c-1.68,0.33-2.39-0.05-4.29,1.81c-1.24,1.51,0.01,2.44-0.07,2.39
		C116.72,254.02,117.17,254,117.22,253.72"/>
	<path d="M91.7,270.47c1.66-0.02,1.43-1.22,2.18-2.76c0.66-1.36,1.26-2.14,3.02-1.89c1.34,0.19,1.37,0.74,1.41,0.9
		c0.08,0.36-0.38,0.65-0.7,0.52c-1.87-0.91-2.46,0.85-2.21,0.14c-0.58,1.62-0.7,2.69-2.42,3.98c-1.67,1-1.89-0.27-1.85-0.18
		C91.33,270.92,91.42,270.48,91.7,270.47"/>
	<path d="M97.4,263.16c0,0-0.68-1.09-0.99-1.61c-0.31-0.52-0.62-1.72-0.62-1.72c-0.1-0.62-0.47-0.62-1.2-0.36
		c-0.59,0.21-0.73,0.36-1.2,0.68c-0.92,0.61-1.66,1.14-1.98,1.87c-0.31,0.73-1.04,1.46-0.62,1.77c0.42,0.31,0.62,0.42,2.08,0.62
		c1.46,0.21,1.66,0.31,2.81,0.21c1.15-0.1,1.36-0.36,1.61-0.57C97.6,263.79,97.4,263.16,97.4,263.16z M94.33,263.61
		c-0.4-0.03-1.66-0.1-1.92-0.38c-0.26-0.27,0.19-0.94,0.48-1.32c0.54-0.69,1.38-1.43,1.89-1.19c0.32,0.15,1.2,2.02,1.2,2.53
		C95.99,264,94.73,263.63,94.33,263.61z"/>
	<path d="M100.33,247c-0.86-0.7-1.27-1.22-2.18-1.54c-0.75-0.26-1.76-0.63-2-0.17c-0.24,0.46-0.15,0.42-0.12,1.9
		c0.04,1.47,0.12,1.98,0.42,3.1c0.18,0.7,0.42,1.69,0.98,1.71c0.53,0.02,0.63-0.57,0.63-0.57s0.82-0.74,1.28-1.13
		c0.46-0.39,1.69-0.99,1.69-0.99c0.14-0.05,0.75-0.47,0.76-0.42C101.69,248.27,101.18,247.7,100.33,247z M100.12,248.61
		c-0.1,0.35-1.82,1.37-2.16,1.74c-0.62,0.67-0.8-1.03-0.88-1.85c-0.04-0.4-0.17-1.66,0.05-1.95c0.22-0.3,0.96,0.03,1.38,0.25
		C99.28,247.22,100.27,248.06,100.12,248.61z"/>
	<path d="M115.95,247.73c-0.49-0.18-0.62-0.42-2.07-0.2c-1.45,0.23-2.22,0.31-3.12,1.02c-0.78,0.61-1.19,0.45-1.07,1.28
		c0.08,0.53,0.32,0.26,0.32,0.26s0.64,0.55,1.09,0.96c0.45,0.41,1.23,1.34,1.23,1.34c0.28,0.57,0.1,0.25,0.45,0.6
		c0.44,0.44,1.16-0.09,1.74-1.03c0.58-0.94,1.26-1.58,1.34-2.37C115.96,248.82,116.44,247.91,115.95,247.73z M114.49,250.14
		c-0.31,0.82-1.12,1.65-1.68,1.57c-0.36-0.05-1.36-1.14-1.49-1.56c-0.41-1.35,1.51-1.38,1.51-1.38c0.39-0.09,1.41-0.23,1.73-0.04
		C114.88,248.93,114.66,249.7,114.49,250.14z"/>
	<path d="M118.61,261.2c-0.86-1.19-0.74-0.8-1.63-1.54c-0.55-0.46-1.33-1.03-2.07-1.24c-0.51-0.15-0.94,0.49-0.94,0.49
		s-0.31,1.17-0.47,1.76c-0.16,0.59-0.99,1.82-0.99,1.82c-0.38,0.51-0.16,0.43,0.21,0.81c0.43,0.45,0.58,0.6,1.68,0.69
		c0.88,0.07,1.67,0.21,2.46-0.09c0.74-0.28,0.81-0.33,1.24-0.62C118.36,263.11,119.48,262.39,118.61,261.2z M116.02,263.13
		c-0.88,0.09-2.16-0.04-2.35-0.57c-0.12-0.34,0.78-1.49,0.85-1.98c0.13-0.9,1.19-0.28,1.72,0.34c0.26,0.31,1.08,1.27,1.06,1.64
		C117.28,262.93,116.49,263.08,116.02,263.13z"/>
	<path d="M108.56,266.26c-0.47-0.25-0.7,0.19-0.7,0.19s-0.66,0.15-1.24,0.3c-0.59,0.15-2.28,0.19-2.28,0.19
		c-0.63-0.08-0.46,0.07-0.61,0.58c-0.18,0.6-0.24,0.8,0.22,1.8c0.46,1.01,0.62,1.92,1.23,2.43c0.61,0.51,1.1,1.41,1.52,1.11
		c0.42-0.31,0.58-0.48,1.19-1.82c0.62-1.34,0.76-1.83,0.99-2.96C109.11,266.94,109.02,266.5,108.56,266.26z M107.54,269.4
		c-0.14,0.38-0.58,1.56-0.91,1.73c-0.33,0.17-0.85-0.45-1.13-0.84c-0.51-0.72-1-1.88-0.65-2.33c0.46-0.59,2.18-0.48,2.61-0.3
		C108.3,268.03,107.66,269.06,107.54,269.4z"/>
	<path d="M122.9,255.84c-0.31,0.58-0.81,0.47-1.25,0.36c-0.33-0.08-0.63-0.57-0.38-0.69c1.32-0.64,1.88-2.53,3.69-2.13
		c0.33,0.07,0.63,0.43,0.38,0.76C124.72,254.98,123.45,254.85,122.9,255.84"/>
	<path d="M118.34,258.21c-1.38-0.32-2.61-0.65-2.11-2.38c1.25,0.47,2.06,2.1,3.81,0.93c0.11-0.08,0.57,0.49,0.3,0.65
		C119.71,257.78,119.01,258.36,118.34,258.21"/>
</g>
<g>
	<path style="fill:#FFFFFF;" d="M90.42,276.74l-2.6,3.64c0,0,0.42-1.66,0.21-2.39c-0.21-0.73-0.1-1.14-0.1-1.14s0.31,0.31,1.14,0.1
		C89.9,276.74,90.42,276.74,90.42,276.74"/>
	<path style="fill:#FFFFFF;" d="M82.26,248.29l-4.18-1.6c0,0,1.72-0.02,2.37-0.4c0.65-0.38,1.08-0.39,1.08-0.39
		s-0.22,0.38,0.19,1.13C82.13,247.78,82.26,248.29,82.26,248.29"/>
	<path style="fill:#FFFFFF;" d="M106.09,232.85l0-4.48c0,0,0.52,1.18,1.12,1.65c0.59,0.47,0.75,0.87,0.75,0.87s-0.43-0.07-0.99,0.58
		C106.41,232.14,106.09,232.85,106.09,232.85"/>
	<path style="fill:#FFFFFF;" d="M128.75,249.68l4.22-1.5c0,0-1.29,1.13-1.54,1.84c-0.24,0.72-0.57,1-0.57,1s-0.08-0.43-0.88-0.74
		C129.18,249.98,128.75,249.68,128.75,249.68"/>
	<path style="fill:#FFFFFF;" d="M119.39,276.68l2.68,3.59c0,0-1.46-0.9-2.22-0.93c-0.76-0.02-1.12-0.25-1.12-0.25
		s0.39-0.2,0.45-1.06C119.23,277.18,119.39,276.68,119.39,276.68"/>
	<path style="fill:#FFFFFF;" d="M91.57,279.97c0,0-0.42-1.25-0.42-1.87l-1.87,2.39C89.28,280.49,90.84,279.66,91.57,279.97"/>
	<path style="fill:#FFFFFF;" d="M79.85,250.12c0,0,1.12-0.7,1.72-0.85l-2.77-1.26C78.8,248.02,79.98,249.34,79.85,250.12"/>
	<path style="fill:#FFFFFF;" d="M103.19,230.88c0,0,1.09,0.74,1.46,1.24l0.05-3.04C104.7,229.09,103.96,230.69,103.19,230.88"/>
	<path style="fill:#FFFFFF;" d="M129.91,246.49c0,0-0.32,1.28-0.65,1.8l2.87-1.02C132.12,247.28,130.35,247.14,129.91,246.49"/>
	<path style="fill:#FFFFFF;" d="M122.72,276.24c0,0-1.31,0.12-1.92-0.02l1.91,2.36C122.71,278.58,122.25,276.88,122.72,276.24"/>
</g>
<path style="fill:none;stroke:#000000;stroke-width:0.8331;" d="M104.78,266.9c5.08,0,9.2-4.12,9.2-9.2c0-5.08-4.12-9.2-9.2-9.2
	c-5.08,0-9.2,4.12-9.2,9.2C95.58,262.78,99.7,266.9,104.78,266.9z"/>
<path style="fill:#FFFF00;" d="M104.78,264.77c3.9,0,7.06-3.16,7.06-7.06c0-3.9-3.16-7.06-7.06-7.06c-3.9,0-7.06,3.16-7.06,7.06
	C97.72,261.6,100.88,264.77,104.78,264.77"/>
<path style="fill:none;stroke:#000000;stroke-width:0.7966;" d="M104.78,264.77c3.9,0,7.06-3.16,7.06-7.06
	c0-3.9-3.16-7.06-7.06-7.06c-3.9,0-7.06,3.16-7.06,7.06C97.72,261.6,100.88,264.77,104.78,264.77z"/>
<g>
	
		<line style="fill:none;stroke:#000000;stroke-width:0.8331;stroke-linecap:round;" x1="106.03" y1="264.67" x2="111.62" y2="259.08"/>
	<line style="fill:none;stroke:#000000;stroke-width:0.8331;stroke-linecap:round;" x1="104.81" y1="257" x2="107.64" y2="254.16"/>
	
		<line style="fill:none;stroke:#000000;stroke-width:0.8331;stroke-linecap:round;" x1="98.77" y1="254.08" x2="101.09" y2="251.77"/>
	
		<line style="fill:none;stroke:#000000;stroke-width:0.8331;stroke-linecap:round;" x1="99.42" y1="262.23" x2="103.01" y2="258.79"/>
	
		<line style="fill:none;stroke:#000000;stroke-width:0.8331;stroke-linecap:round;" x1="108.06" y1="253.75" x2="109.36" y2="252.45"/>
	
		<line style="fill:none;stroke:#000000;stroke-width:0.8331;stroke-linecap:round;" x1="101.97" y1="264.21" x2="111.26" y2="254.92"/>
	
		<line style="fill:none;stroke:#000000;stroke-width:0.8331;stroke-linecap:round;" x1="97.94" y1="259.13" x2="100.39" y2="256.69"/>
	
		<line style="fill:none;stroke:#000000;stroke-width:0.8331;stroke-linecap:round;" x1="100.88" y1="256.19" x2="103.19" y2="253.88"/>
	
		<line style="fill:none;stroke:#000000;stroke-width:0.8331;stroke-linecap:round;" x1="104.6" y1="252.53" x2="106.29" y2="250.78"/>
	
		<line style="fill:none;stroke:#000000;stroke-width:0.8331;stroke-linecap:round;" x1="100.67" y1="251.98" x2="110.53" y2="261.84"/>
	
		<line style="fill:none;stroke:#000000;stroke-width:0.8331;stroke-linecap:round;" x1="98.36" y1="254.87" x2="107.64" y2="264.15"/>
	
		<line style="fill:none;stroke:#000000;stroke-width:0.8331;stroke-linecap:round;" x1="97.89" y1="259.08" x2="103.43" y2="264.62"/>
	
		<line style="fill:none;stroke:#000000;stroke-width:0.8331;stroke-linecap:round;" x1="104.21" y1="250.73" x2="111.78" y2="258.3"/>
</g>
<polygon style="fill:#FFFF00;stroke:#000000;stroke-width:0.7966;" points="100.65,223.03 101.04,223.98 61.7,223.98 61.7,172.58 
	63.99,172.58 63.99,222.32 100.93,222.32 "/>
<polygon style="fill:#FFFF00;stroke:#000000;stroke-width:0.7966;" points="148.49,172.89 148.49,223.88 111.65,223.88 
	111.44,222.22 147.24,222.22 147.24,172.16 "/>
<path style="fill:#FFFF00;stroke:#000000;stroke-width:0.7966;" d="M77.31,220.86h24.14l1.04-0.62c0,0-0.83-2.08-5.41-2.71
	c-4.58-0.62-6.87-0.42-10.2,0.83C83.55,219.62,80.22,220.66,77.31,220.86z"/>
<path style="fill:#FFFF00;stroke:#000000;stroke-width:0.7966;" d="M131.84,220.86H110.4c0,0-0.83-0.83-2.39-1.25
	c0,0,2.14-1.25,6.76-1.25c3.54,0,5.2,0.21,8.32,0.83C126.59,219.9,128.93,220.66,131.84,220.86z"/>
<polygon style="fill:#FFFF00;stroke:#000000;stroke-width:0.7966;" points="146.2,220.66 146.2,171.75 144.74,171.12 144.74,219.2 
	"/>
<path style="fill:#FFFF00;stroke:#000000;stroke-width:0.7966;" d="M106.24,224.96c1.95,0,3.53-0.86,3.53-1.91
	c0-1.06-1.58-1.91-3.53-1.91c-1.95,0-3.53,0.86-3.53,1.91C102.71,224.1,104.29,224.96,106.24,224.96z"/>
<path style="fill:#FFFFFF;" d="M126.29,75.99c0.16,0.49,2.77,10.35,3.44,11.1c0.46,0.52,2.26,0.19,2.06-0.61
	c-1.94-8.05-3.25-18.54-12.26-21.2c-1.14-0.34-2.19,0.33-3.34,0.6c-2.45,0.58-5.33-1.99-7.46,0.56c3.5,2.4,4.11,7.02,5.41,10.82
	c0.27-0.59,1.06-0.5,1.12-0.36c1.27,2.91,0.9,14.25,3.47,15.98c0.3,0.2,2.8-2.19,2.28-3.47c-0.9-2.23-0.84-4.59-1.57-6.84
	c-0.58-1.76-1.28-4.61-1.76-6.51c-0.84-3.31-1.43-5.82-4.37-7.96c3.39-0.02,4.06,3.65,4.78,5.9c1.43,4.48,2.58,8.88,3.27,13.65
	c0.08,0.56,0.54,1.68,1.05,1.51c0.71-0.24,2.02-0.76,1.93-1.46c-1.04-8.17-3.07-16.06-6.45-19.59c1.63-0.6,2.28,0.9,2.74,1.76
	c2.81,5.32,3.19,11.22,4.95,16.91c0.33,1.07,2.97,2.54,2.64,1c-1.23-5.84-2.78-15-7-19.67C124.18,68.94,125.35,73.03,126.29,75.99"
	/>
<path style="fill:#FFFFFF;" d="M114.56,87.77c0.52,6.14,2.57,5.84,2.71,5.98c-1.98-2.91-1.82-14.05-2.7-15.56
	C113.94,78.3,114.32,84.85,114.56,87.77"/>
<path style="fill:#FFFFFF;" d="M119.87,95.07c-1.18,0.72-3.19,1.41-4.29-0.05c-4.01-5.33-1.33-9.54-2.47-16.07
	c-0.31-1.74-1.09-5.09-2.09-7.16c-1.2-2.49-2.77-4.88-4.71-6.26c-0.34-0.24-0.78,0.2-0.71,0.31c3.02,4.36,4.69,6.1,5.58,12.87
	c0.74,5.61,0.24,12.16,1.49,16.8c0.75,2.78,3.47,5.32,6.46,5c2.74-0.29,5.55-3.74,4.58-6.2c-1.33,1.02-2.07,2.7-3.75,3.33
	c-0.25-1.01,1.04-3.28,3.8-5.52c0.43-0.35,0.89-0.93,1.2-0.41c0.31,0.52,0.52,1.35,0.94,0.94c0.42-0.41,0.62-1.14,0.31-1.77
	c-0.31-0.62-0.83-1.87-2.5-0.31C122.06,92.14,120.18,94.88,119.87,95.07"/>
<path style="fill:#FFFFFF;" d="M126.95,95.57c-1.22,2.85-1.76,3.61-4.01,5.88c-0.26,0.26,0.09,0.73,0.36,0.71
	c1.71-0.11,3.08-1,4.15-2.44c0.86-1.16,0.47-3.12,2.52-3.32c-0.47,2.24-1.17,4.51-2.83,6.32c-0.06,0.06,0.33,0.45,0.74,0.34
	c3.65-1.06,3.11-4.83,5.06-7.45c0.1-0.14,0.49-0.05,0.77-0.05c-0.07,2.24-1.99,4.31-0.83,6.66c2.58-2.19,3.21-6.43,1.25-9.16
	c-0.28,0.28-0.54,0.73-0.84,0.75c-1.78,0.11-0.07-2.19-1.25-2.29c-2.29-0.18-1.69,3.17-3.74,3.62c-0.31-0.62,0-2.6,0.73-3.95
	c1.04-0.94,1.98-1.46,2.81-1.46c0.83,0,1.67-0.21,1.98,0.41c0.31,0.62,0.1,0.83,0.31,1.35c0.21,0.52,0.62,0.93,0.83,0.1
	c0.21-0.83,0.52-1.56,0.21-1.87c-0.31-0.31-0.62-0.94-2.29-0.83c-1.66,0.1-3.02-0.1-3.85,1.04c-0.83,1.14-1.25,2.08-1.45,3.23
	C127.37,94.32,127.16,95.05,126.95,95.57"/>
<path style="fill:#FFFFFF;" d="M138.23,93.48c0.16-0.94-1.33-1.83-0.37-1.58c-0.52-0.14-1.42-0.4-1.54,0.36
	c-0.31,1.98-0.08,3.94,0.73,5.81C138.03,96.7,137.96,95.08,138.23,93.48"/>
<path style="fill:#FFFFFF;" d="M184.54,126.74c-2.72-2.62-6.19-3.7-9.2-5.78c3.79,0.02,6.8,2.36,9.25,4.53
	c3.3,2.92,7.21,4.58,9.93,8.35c2.48,3.44,4.12,7.84,2.14,11.73c-0.08,0.15,0.35,0.54,0.73,0.34c1.54-0.8,3.23-1.71,3.07-3.27
	c-1.46-13.45-15.44-22.18-28.03-24.59c-1.25,1.35,3.65,5.45,2.56,8.19c-0.37,0.93-2.6-1.71-3.19-0.2c-0.32,0.83,1.8,0.26,1.87,1.59
	c-2.78,0.03-4.98-3.21-7.91-1.66c3.36,2.3,7.48,2.75,10.83,5.4c1.76,1.39,2.46,4.51,3.71,4.45
	C183.55,135.66,188.36,130.42,184.54,126.74"/>
<path style="fill:#FFFFFF;" d="M194.14,128.38c2.87,2.71,4.34,5.95,6.66,9.18c0.2,0.28,0.7-0.08,0.69-0.36
	c-0.57-10.75-9.74-18.4-20.32-20.42c-0.83-0.16-1.23,0.69-1.67,0.68c-1.91-0.02-3.79-1.44-5.83-0.25
	C181.17,119.5,188.3,122.85,194.14,128.38"/>
<path style="fill:#FFFFFF;" d="M180.44,114.82c2.7-0.1,3.23-0.42,5.93,0.52c2.7,0.94,5.41,1.77,8.64,4.89
	c3.22,3.12,6.87,7.39,7.7,10.41c0.83,3.02,1.77,7.6,1.25,9.47c-0.52,1.87-0.62,5.1-3.23,6.87c-2.6,1.77-4.68,2.19-5.83,2.19
	s-3.95-0.31-6.45-1.98c-2.5-1.66-3.64-2.71-6.24-4.06c-2.6-1.35-4.58-1.77-5.52-1.66c-0.94,0.1-1.98,0.62-1.98,0.62
	s-0.31-0.73,0.42-1.14c0.73-0.42,1.66-1.14,3.12-0.62c1.46,0.52,3.85,1.25,5.2,2.29c1.35,1.04,3.23,2.39,4.79,3.33
	c1.56,0.94,2.71,1.66,4.27,1.77c1.56,0.1,4.27,0.1,5.2-0.31c0.94-0.42,2.6-1.14,3.33-2.71c0.73-1.56,1.87-4.06,1.77-6.14
	c-0.1-2.08-0.21-6.04-1.77-9.05c-1.56-3.02-3.33-5.93-6.24-8.12c-2.91-2.19-5.62-3.64-8.64-4.79
	C183.14,115.45,180.44,114.82,180.44,114.82"/>
<path style="fill:#FFFFFF;" d="M205.31,133.66c0.94,3.33,1.46,7.7,1.04,10.2c-0.42,2.5-3.12,7.6-5.93,10.09
	c-2.81,2.5-7.8,5.62-11.24,6.76c-3.43,1.14-7.28,1.77-9.26,1.66c-1.98-0.1-3.44-0.52-3.75-2.08c-0.31-1.56,1.77-3.12,3.64-3.75
	c1.87-0.62,6.24-0.73,7.8-0.62c1.56,0.1,3.54-0.1,3.54-0.62c0-0.52,0.1-0.52-2.08-0.83c-2.18-0.31-4.89-0.21-7.49-1.35
	c-2.6-1.14-5.41-2.71-6.04-4.58c-0.62-1.87-0.62-2.91-0.21-4.06c0.42-1.14-0.52-1.56,0.94-1.66c1.46-0.1,2.6-0.21,4.68,1.14
	c2.08,1.35,4.16,3.12,6.14,4.27c1.98,1.14,3.54,1.87,5.62,1.98c2.08,0.1,3.95,0.1,4.89-0.21c0.94-0.31,3.02-1.35,3.02-1.35
	s-2.08,2.08-3.02,2.5c-0.94,0.42-3.43,0.42-5.72,0.21s-4.27-0.1-6.66-1.04c-2.39-0.94-3.85-2.08-4.37-2.39
	c-0.52-0.31-1.25-0.42-1.14,0c0.1,0.42,0.94,0.83,1.98,1.56c1.04,0.73,2.5,1.87,5.72,2.71c3.23,0.83,7.39,1.14,8.84,0.83
	c1.46-0.31,3.95-1.35,5.41-2.91c1.46-1.56,3.33-3.96,3.64-6.45c0.31-2.5,0.73-4.48,0.52-5.72
	C205.62,136.68,205.31,133.66,205.31,133.66"/>
<path style="fill:#FFFFFF;" d="M179.97,171.8c-6.56,6.89-9.85,14.83-9,20.76c1.03-2.21,3.89-7.13,5.42-8.98
	c6.64-8.02,11.89-16.18,19.84-22.99c0.07-0.06,0.56,0.44,0.29,0.69c-1.7,1.52-3.09,3.84-4.53,5.47c2.29-0.21,3.64,0.73,4.1,2.92
	c0.11,0.52,1.07-0.94,1.21-1.3c1.71-4.31,3.85-8.49,3.85-13.28c-2.92,2.62-5.59,3.7-9,5.85c-0.42,0.26-1.79,1.04-2.33,1.17
	c-0.33,0.08-1.16,0.07-1.05,0.48C185.43,163.94,181.98,169.69,179.97,171.8"/>
<path style="fill:#FFFFFF;" d="M190.22,173.41c0.42-0.94,0.42-1.98,1.14-2.5c0.73-0.52,1.04-0.73,1.04-0.1
	c0,0.62,0.31,0.31-0.42,1.14C191.26,172.79,190.22,173.41,190.22,173.41"/>
<path style="fill:#FFFFFF;" d="M204.58,171.71c-0.91-2.87-1.41-6.12-3.86-7.87c-0.7,2.13-1.31,4.24-2.57,6.19
	c-3.05,4.75-9.95,7.49-8.42,13.73c0.49,1.99,2.49,3.35,3.09,5.47c0.66-0.28,1.43,0.56,1.47,0.37c0.95-3.88-1.59-7.65-0.19-11.6
	c0.12-0.33,0.64-0.59,0.67-0.4c0.62,3.4-0.59,6.83,1.38,9.97c1.1-2.09,2.25-4.31,1.87-6.62c-0.3-1.84-1.4-3.51-0.93-5.42
	c0.28-1.14,0.48-2.23,0.81-3.33c0.02-0.08,0.47-0.03,0.75-0.03c-1.3,5.48,1.64,10.28,2.91,15.4c2.65-3.63,1.54-7.99,2.5-12.07
	c1.02,2.91,0.25,5.77,0.83,8.74C206.5,180.55,205.87,175.78,204.58,171.71"/>
<path style="fill:#FFFFFF;" d="M207.26,172.2c-1.24-3.9-2.04-7.75-2.21-11.7c-0.14-3.18,1.58-6.27,0.68-9.57
	c-2.05,3.91-3.87,8.26-2.54,12.92c2.14,7.52,5.98,15.51,1.63,22.83c-0.16,0.27-0.54-0.07-0.75-0.36c-0.64,0.56-0.32,1.7-1.25,2.08
	c0.2,0.29,0.46,0.6,0.81,0.38C209.46,185.11,209.05,177.86,207.26,172.2"/>
<path style="fill:#FFFFFF;" d="M181.17,200.47c3.54,0.18,7.01-0.17,10.41-1.25c-3.46-1.45-6.84,1.16-10.38,0.29
	c-1.92-0.47-3.69-0.8-5.02-2.38c-1.83,2.05,0.45,4.62-0.09,7.06c-0.01,0.06-0.46,0.02-0.74,0.02c0.11-0.4-0.66-1.61-0.93-1.59
	c-0.61,0.04-0.03,1.64,0.18,1.96c0.71,1.12,0.85,2.31,1.49,3.44c0.47,0.83-1.07,1.89,0.1,2.86c0.27-0.59,0.93-0.55,1.18-0.33
	c3.86,3.32,8.2,6.12,13.35,6.86c2.59,0.37,4.05,2.72,5.53,5.08c0.17,0.27,0.66-0.06,0.69-0.37c0.69-7.87-8.06-10.55-13.68-13.32
	c4.54,0.9,9.14,2.34,12.54,5.78c0.26,0.26,0.7-0.07,0.72-0.37c0.19-2.8-1.79-5.64-4.2-6.31c-2.01-0.56-4.25,0.03-6.61-0.56
	c-1.01-0.25-1.34-0.91-1.48-1.48c-0.12-0.51,0.72-0.46,1.07-0.31c4.73,2,7.75,0.23,9.44-0.35c0.26-0.09,2.8,0.59,2.99-0.27
	c0.73-3.21-1.55-5.21-2.11-5.28c-0.46-0.05,0.98,2.5,1,3.01c0.01,0.27,0.01,0.49-0.1,0.52c-1.26,0.35-1.26-1.97-2.46-2.17
	c-2.25-0.38-4.4,0.21-6.66,0.53C185.3,201.83,182.97,202.26,181.17,200.47"/>
<path style="fill:#FFFFFF;" d="M173.21,201.72c-0.69-6.46,3.79-11.66,5.45-14.16c-0.2,0.36-4.58,3.54-6.14,9.74
	c-0.4,1.57-1.02,4.46-0.84,6.07c0.55,4.97,3.6,9.35,2.73,14.56c-0.46,2.72-2.31,4.8-2.74,7.52c-0.04,0.26,0.37,0.58,0.73,0.37
	c0.88-0.5,1.28-1.43,2.06-2.09c2.09-1.74,0.68-4.78,2.53-6.62c1.36,2.13-0.71,4.15-0.76,6.25c-0.01,0.29,0.42,0.62,0.73,0.37
	c4.24-3.39,2.46-9.02-0.38-12.44c-1.02,1.25,0.53,2.5,0,3.75c-1.82-1.85-1.32-4.52-2.3-6.75
	C173.42,206.31,173.45,203.97,173.21,201.72"/>
<path style="fill:#FFFFFF;" d="M173.17,214.22c-0.21-1.18-0.91-4.2-1.58-5.22c0.21,4.99-0.82,9.84-0.62,13.32
	C172.33,220.24,173.61,216.72,173.17,214.22"/>
<path style="fill:#FFFFFF;" d="M193.65,221.18c0.31,0.52,0.83,1.56,0.73,2.08c-0.1,0.52-1.04,1.56-2.6,2.08
	C190.22,225.86,193.65,221.18,193.65,221.18"/>
<path style="fill:#FFFFFF;" d="M191.78,226.17c0.31,0,2.19-0.94,2.19-0.94s-0.21,0.94-0.62,1.14
	C192.92,226.59,191.78,226.17,191.78,226.17"/>
<path style="fill:#FFFFFF;" d="M180.23,139.28c-2.5-0.94-4.4-0.71-5.7,0.04c-0.51,0.29-1.03,0.73-1.18,1.23
	c-0.34,1.13,0.5,2.28,0.52,3.3c0.02,1.47-0.5,3.15-0.02,4.51c0.74,2.11,2.45,3.78,4.4,5.06c-4.19,1.47-7.87,7.06-4.98,10.45
	c1.15,1.35,4.34-0.62,6.59,0.12c1.48,0.49-0.3,1.41-0.57,1.76c-2.37,3.12-5.9,6.75-8.43,9.63l-0.04-45.06
	c0-0.29,0.38-0.38,0.75-0.18c2.16,1.14,4.51,2.14,5.65,4.24c0.71,1.32,1.44,2.81,1.87,3.93c2.45-0.47,3.79-1.9,5.75-3.3
	c1.71-1.23,2.02-4.61,3.28-4.33c4,0.86,6.57,4.89,7.91,9.05c0.37,1.15,0.48,2.62-0.05,3.61c-0.97,1.83-3.58,3.27-5.63,2.14
	C186.4,143.32,184.49,140.66,180.23,139.28"/>
<path style="fill:#FFFFFF;" d="M188.62,180.17c0.12-1.26,3.05-5.67,2.16-5.33c-5.55,2.11-3.05,12.1-0.51,12.99
	c0.21,0.07,0.6,0.2,0.4-0.12C189.3,185.63,188.35,183.09,188.62,180.17"/>
<path style="fill:#FFFFFF;" d="M182.88,180.43c0.99-1.04,4.4-5.9,5.65-7.7c0.75-1.09,1.56-2.39,2.78-3.6
	c0.35-0.35,3.8-0.3,1.89,3.74c-0.06,0.13,1.18-1.02,1.52-2.04c0.26-0.77,0.28-1.47-0.5-2.43c-0.41-0.51-2.04-0.74-2.08-0.72
	c-3.26,1.95-7.55,8.65-11.93,13.44c-1.63,1.78-4.05,4.78-5.86,8.32c-0.01,0.3-0.52,1.23-0.47,1.56
	C175.99,188.94,180.81,182.61,182.88,180.43"/>
<path style="fill:#FFFFFF;" d="M82.31,60.4c-1.36,0-2.29,0.31-2.39,1.04c-0.15,1.04-0.31,2.5,0.94,2.5c1.25,0,1.25,0.1,2.91-0.42
	c1.67-0.52,1.56-0.21,2.5-0.1c0.94,0.1,2.29,0.1,2.08-0.21c-0.66-0.99-1.04-2.18-3.23-2.6C82.93,60.19,83.14,60.4,82.31,60.4"/>
<path style="fill:#FFFFFF;" d="M100.1,60.71c-1.36,0-4.34,0.21-3.95,0.83c0.52,0.83,0.87,1.12,1.87,1.87
	c0.83,0.62,2.19,0.73,3.95,0.62c0.94-0.06,2.08,0.27,2.08-0.1c0-0.31-0.83-2.6-3.02-3.02C98.85,60.5,100.93,60.71,100.1,60.71"/>
<path style="fill:#FFFFFF;" d="M113,61.34c-0.68,0.34-0.21,0.42,0,0.83c0.21,0.42,1.25,1.46,1.87,1.87
	c0.62,0.42,1.98,0.42,3.23,0.42c1.25,0,1.56,0,1.87,0.1c0.31,0.1,0.73-0.52-0.1-1.35c-0.83-0.83-1.25-1.35-2.19-1.66
	C116.75,61.23,113.84,60.92,113,61.34"/>
<path style="fill:#00502F;stroke:#00502F;stroke-width:1.0626;" d="M89.8,60.92c-0.68,0.34-1.04,0.31-0.83,0.73
	c0.21,0.42,0.52,1.14,1.14,1.56c0.62,0.42,2.71,0.73,3.96,0.73c1.25,0,1.66-0.31,1.98-0.21c0.31,0.1,0-0.31-0.83-1.14
	c-0.83-0.83-0.73-1.14-1.67-1.46C92.61,60.81,90.63,60.5,89.8,60.92z"/>
<path style="fill:#00502F;stroke:#00502F;stroke-width:1.0626;" d="M104.78,61.02c-0.68,0.34-0.21,0.42,0,0.83
	c0.21,0.42,1.25,1.46,1.87,1.87c0.62,0.42,1.98,0.42,3.23,0.42c1.25,0,2.7,0,3.02,0.1c0.31,0.1,0-0.73-0.83-1.56
	c-0.83-0.83-0.83-1.04-1.77-1.35C109.36,61.02,105.62,60.61,104.78,61.02z"/>
<path style="fill:#00502F;stroke:#00502F;stroke-width:1.0626;" d="M121.12,62.01c-0.68,0.34,0.26,1.43,0.47,1.85
	c0.21,0.42,0.47,0.44,1.09,0.86c0.62,0.42,1.98,0.21,2.29,0.31c0.31,0.1,1.66-2.5,0.73-2.81C124.76,61.91,121.95,61.6,121.12,62.01z
	"/>
<g>
	<path style="fill:none;stroke:#000000;stroke-width:0.5731;" d="M122.06,62.79c0.73,0.42,1.56,1.35,1.77,2.19"/>
	<path style="fill:none;stroke:#000000;stroke-width:0.5731;" d="M124.04,62.69c0.83,0.73,1.35,1.46,1.35,1.98"/>
	<path style="fill:none;stroke:#000000;stroke-width:0.5731;" d="M117.27,62.06c1.14,0.83,1.46,1.87,1.56,2.29"/>
	<path style="fill:none;stroke:#000000;stroke-width:0.5731;" d="M115.19,62.38c0.94,0.83,1.46,1.35,1.46,2.08"/>
	<path style="fill:none;stroke:#000000;stroke-width:0.5731;" d="M109.26,61.86c1.14,0.52,1.46,1.66,2.29,2.19"/>
	<path style="fill:none;stroke:#000000;stroke-width:0.5731;" d="M106.76,61.75c1.25,0.62,1.46,1.04,1.98,1.56
		c0.52,0.52,1.14,0.83,1.14,0.83"/>
	<path style="fill:none;stroke:#000000;stroke-width:0.5731;" d="M100.62,61.75c1.25,0.52,1.14,1.04,1.56,1.66
		c0.42,0.62,0.73,0.73,0.73,0.73"/>
	<path style="fill:none;stroke:#000000;stroke-width:0.5731;" d="M98.54,61.75c1.04,0.42,0.94,0.62,1.35,1.25
		c0.42,0.62,0.42,0.83,1.04,1.04"/>
	<path style="fill:none;stroke:#000000;stroke-width:0.5731;" d="M92.71,61.75c0.94,0.52,0.83,0.94,1.25,1.35
		c0.42,0.42,0.31,0.62,1.04,0.83"/>
	<path style="fill:none;stroke:#000000;stroke-width:0.5731;" d="M90.84,61.86c1.35,0.73,1.46,1.25,1.77,1.66
		c0.31,0.42,0.73,0.52,0.73,0.52"/>
	<path style="fill:none;stroke:#000000;stroke-width:0.5731;" d="M84.08,61.34c1.14,0.52,0.94,0.62,1.56,1.35
		c0.62,0.73,0.62,0.73,0.62,0.73"/>
	<path style="fill:none;stroke:#000000;stroke-width:0.5731;" d="M81.37,61.75c0.73,0.73,1.25,1.56,1.25,1.56l0.62,0.42"/>
</g>
<path style="fill:#FFFFFF;" d="M98.37,134.86c1.66-0.35,3.08,0.12,3.49-0.45c4.48-6.16,11-10.99,20.61-10.63
	c4.46,0.17,8.04,2.53,11.78,4.88l2.85-0.01c-1.21-2.28-4.48-4.28-7.2-5.48c-2.99-1.32-6.52-1.65-9.52-1.67
	c-7.86-0.04-14.61,5.61-19.77,12.2c-0.38,0.49-1.8,0.03-2.62,0.31c-1.75,0.59-4.24,1.11-6.6,3.36c0,0-1.28-0.48-3.16-1.31
	c-1.87-0.83-4.48-0.94-5-0.94c-0.52,0,0.62,0.73,0.62,0.73s1.98,0.42,3.43,0.94c1.46,0.52,3.85,1.46,3.85,1.46s2.6-1.46,3.54-2.08
	C95.63,135.53,98.1,134.92,98.37,134.86"/>
<path style="fill:#C41230;stroke:#000000;stroke-width:1.0626;" d="M128.76,58.89c0.91,0.71,3.05,1.79,2.8,1.05
	c-2.08-6.17-1.1-12.64-4.1-18.47c-0.98-1.9-2.1-3.8-3.85-4.79c-2.79-1.59-6.34-1.62-9.46-0.21c2.13,1,4.53-0.1,6.64,0.87
	c2.6,1.19,4.32,3.64,4.33,6.2C125.14,48.89,123.78,55.02,128.76,58.89z"/>
<path style="fill:#C41230;stroke:#000000;stroke-width:1.0626;" d="M85.91,57.72c-0.37,1.09-2.16,1.88-2.31,0.78
	c-0.09-0.64,1.28-1.09,1.91-1.99c1.38-1.93,3.85-6.31,3.5-9.61c-0.24-2.28-1.25-4.43-2-6.65c-0.31-0.92-1.39-1.3-1.76-2.47
	c-0.42-1.35-0.44-2.76-0.01-3.7c1.54-3.38,3.37-6.64,3.27-10.52c-0.01-0.49,1.21-0.54,1.45-1.26c0.13-0.38,0.04-0.82,0.04-1.24
	c-0.8,0.48-1.38,1.61-2.47,1.19c-1.71-0.66-0.73-2.5-0.98-3.74c-0.19-0.94,2.38-0.35,2.44-1.61c0.02-0.42-0.9-0.87-0.64-1.65
	c0.21-0.62,0.78-0.39,1.23-0.42c-0.27-1.08,0.25-1.78,1.26-2.03c1.77-0.42,3.7,0.02,4.47,1.66c1.1,2.35,0.26,4.95,0.37,7.45
	c0.02,0.4-0.74,1.14-1.07,1.08c-1.22-0.24-1.87-1.63-2.95-2.33c0.43,2.22,0.88,4.43,1.25,6.66c1.04-0.21,0.63,1.18,1.25,1.18
	c2.15-0.02,4.24,1.53,6.16,0.71c3.02-1.28,4.04-4.76,4.37-7.75c0.66-5.88,0.74-11.45-0.65-17.52c-0.18-0.81,1.75-1.8,2.38-1
	c3.68,4.62,2.73,10.28,2,15.6c-0.46,3.37-0.26,6.63-2.52,9.69c-0.07,0.1,0.36,0.52,0.72,0.32c1.45-0.83,1.93-2.41,2.32-3.77
	c2.12-7.34,0.56-14.64,0.04-22.02c-0.07-0.94,1.64-1.82,2.51-1.07c5.06,4.37,4.06,11.55,2.74,17.25c-0.93,3.99-2.02,7.86-4.98,11
	c-0.05,0.05-0.55,1.34,0.23,0.98c2.93-1.35,3.86-4.58,4.92-7.39c1.55-4.1,1.87-8.51,1.68-12.84c-0.13-2.94-1.31-5.78-1.46-8.75
	c-0.02-0.28,0.46-0.63,0.7-0.36c4.48,4.91,5.05,12.31,4.52,18.67c-0.5,5.99-5.95,9.17-8.39,14.28c-0.29,0.6,1.42,1.37,1.56,2.02
	c0.35,1.7-2.99,0.4-2.64,2.44c4.8-1.17,10.99-2.18,13.19,3.38c0.9,2.27,0.15,4.65-0.06,7.05c-0.23,2.62-0.16,5.71,1.65,7.69
	c0.79,0.86,0.95,2.21,2.22,2.82c0.15,0.07,0.24,1.02-0.36,1.04c-3.21,0.12-6.33-0.83-9.58-0.78c-2.75,0.04-5.7-1.28-8.73-0.39
	c-0.17-0.65-1.36-0.44-1.11-0.69c3.04-3.06,7.26-1.16,11.1-1.16c1.1,0,0.97-1.44,0.35-2.26c-0.97-1.3-2.27-2.09-3.18-3.44
	c-1.76-2.58-0.79-6.2-3.2-7.99c-2.05-1.52-4.81,0.04-7.35,0.72c-2.32,0.61-4.56,1.96-6.97,1.35c-0.84-0.21-1.73-1.07-2.44-0.55
	c-1.39,1.03-1.4,3.09-2.4,4.25C91.49,52.39,88.76,54.36,85.91,57.72z"/>
<path style="fill:#C41230;stroke:#000000;stroke-width:1.0626;" d="M130.04,128.69c0.76-0.24-0.92-1.47-1.4-1.7
	c-5.24-2.49-12.8-2.08-17.72,1.67L130.04,128.69z"/>
<path style="fill:#C41230;stroke:#000000;stroke-width:1.0626;" d="M78.24,87.05c-2.12,0.16-5.59-0.25-7.7,0.4
	c-1.89,0.58-4.84,2.09-6.16,3.47c-0.21,0.17-0.34,0.86,0.39,1c2.14,0.42,6.45,0.48,9.37,0.04c5.61-0.84,10.35-2.94,16.38-6.17
	C85.86,86.41,82.93,86.7,78.24,87.05z"/>
<g>
	<path style="fill:#BCBEC0;" d="M80.64,66.75c-1.07,2.15-1.66,4.89-3.43,7.6c-1.77,2.71-3.33,5.31-4.37,6.14
		c-1.04,0.83-2.29,1.56-2.29,1.56s0,0.42,0.62,0.42c0.62,0,3.85,0.1,5.1,0.21c1.25,0.1,1.77-0.1,1.98,0.21
		c0.21,0.31,0.21,0.94-0.42,1.04c-0.62,0.1-2.29-0.1-3.54-0.1c-1.25,0-5.2,0-5.93-0.52c-0.73-0.52-0.31-0.62-0.93-0.73
		c-0.62-0.1-0.94,0.83-0.52,1.04c0.42,0.21,1.98,1.25,7.18,1.46c5.2,0.21,11.34-0.21,13.42-0.52c2.08-0.31,3.12-0.62,1.98-0.62
		c-1.15,0-3.33,0.1-4.89,0.1s-4.16,0-4.79-0.1c-0.62-0.1-1.04-1.04-0.21-1.14c0.83-0.1,3.85-0.21,5.72-0.21
		c1.87,0,7.7,0.31,9.05,0.1c1.35-0.21,1.35-0.21,1.98-0.31c0.62-0.1,3.64-1.87,3.64-1.87s0.94-0.42,1.04,0.21s0.49,1.4-0.83,1.98
		c-1.67,0.73-5.2,2.7-6.76,3.02c0,0,0.21,0.62-1.25,1.46c-1.46,0.83-7.39,3.12-9.26,3.85c-1.87,0.73-4.68,1.56-6.45,1.87
		c-1.77,0.31-4.32,0.62-6.71,0.62c-2.39,0-5.57-0.21-6.3-0.42c0,0,3.62,1.25,4.37,1.35c1.46,0.21,6.24-0.1,8.43-0.42
		c2.19-0.31,6.56-1.66,9.16-2.71c2.6-1.04,5.93-2.39,7.6-3.23c0.88-0.44,7.28-4.58,7.91-5.2c0.62-0.62,1.14-0.52,1.46-0.1
		c0.31,0.42,0.21,1.46-1.35,2.5c-1.56,1.04-4.68,3.12-9.16,5.31c-3.98,1.94-9.26,3.54-11.76,4.27c-2.5,0.73-5.1,0.83-5.1,0.83
		s7.6,8.53,8.85,11.34c1.25,2.81,2.6,8.53,2.6,10.51c0,1.98-1.15,6.56-1.56,8.33c-0.42,1.77-0.73,6.35,0,7.91
		c0,0,3.85,0.31,5.31,1.66c0,0,1.98-1.77,4.47-2.29c2.5-0.52,4.58-0.62,4.89-0.62c0,0,2.39-3.85,5.73-6.45
		c3.33-2.6,6.24-5.2,13.63-6.35c0,0-5.83-4.16-8.64-10.93c-2.81-6.76-3.33-11.55-3.75-17.07c-0.42-5.52-1.04-11.03-2.08-13.84
		c-0.88-2.38-0.86-4.18-3.66-6.02c-1.59-1.05-2.17-0.66-2.9-1.26c-1.77-1.46-1.14-2.34-1.52-2.76c-1.08-1.2-2.49-1.89-5.35-2.24
		c-3.44-0.42-7.28-0.52-8.33-0.31C81.68,65.5,80.85,66.33,80.64,66.75"/>
	<path style="fill:#BCBEC0;" d="M70.75,96.2l2.08-0.1c0,0,4.68,4.99,5.83,6.56c1.14,1.56,2.18,3.33,3.43,6.04
		c1.25,2.7,2.5,8.22,2.5,8.22c0,1.77-0.83,3.64-1.04,5c-0.21,1.35-0.62,3.54-0.83,5.72c-0.21,2.19-0.1,6.04-0.1,6.04
		s-2.29-0.83-2.91-1.87c-0.62-1.04-1.56-2.18-1.56-4.47s1.04-4.89,1.67-6.35c0.62-1.46,1.35-3.75,0.73-7.6
		c-0.62-3.85-1.25-6.87-2.39-8.84c-1.14-1.98-1.56-2.91-3.23-4.58C73.25,98.28,70.75,96.2,70.75,96.2"/>
	<path style="fill:#BCBEC0;" d="M111.18,105.02c0.41,1.63,1.73,0.38,2.14,1.48c1.11,2.97,2.81,5.1,5.62,7.8
		c2.81,2.7,6.04,5.72,6.04,5.72s5,0.52,8.12,3.02c0,0,4.27,3.12,5.52,4.89h2.08c0,0-1.46-2.08-4.48-4.89
		c-3.02-2.81-9.05-8.43-9.78-9.16c-0.73-0.73-3.64-4.48-3.64-4.48s-2.7-0.94-4.79-2.6c-2.08-1.66-1.87-2.5-1.87-2.5
		c-1.25-1.66-1.69-2.6-3.23-2.29C111.22,102.36,110.98,104.22,111.18,105.02"/>
</g>
<path style="fill:#FFFFFF;" d="M152.45,125.95c-1.36-0.51-2.24-1.8-3.42-2.29c-5.92-2.43-12.12-4.96-16.33-10.47
	c-0.32-0.42-1.47-0.24-2.31-0.09c-0.33,0.06-0.63,0.44-0.38,0.74c4.66,5.61,10.38,9.28,15.25,14.75l3.96-0.04
	c-2.62-2.42-5.53-4.69-8.43-6.76c4.3,0.72,6.98,5.25,10.56,6.74l4.95,0.02C155.31,127.33,153.91,126.5,152.45,125.95"/>
<path style="fill:#FFFFFF;" d="M159.14,128.76c1.45,0.41,1.9-1.28,2.88-1.97c-2.61-1.56-5.46-1.44-8.33-1.25
	C155.52,126.61,157.07,128.18,159.14,128.76"/>
<path style="fill:#FFFFFF;" d="M165.35,128.85c0.45,0.05,1.22,0.17,1.12-0.37c-0.2-1.04-1.38-1.02-2.36-0.81
	c-0.33,0.07-0.58,0.4-0.4,0.78C164.06,129.2,164.78,128.79,165.35,128.85"/>
<path style="fill:#FFFFFF;" d="M65.44,95.62c-0.54-0.13-1.22,0.14-1.59-0.14c-1.84-1.38-4.13-1.1-6.32-1.87
	c-1.53-0.53,1.89,2.31,0.82,3.01c-1.31,0.86-2.78,0.15-4.04-0.77c-2.67-1.94-4.34-4.42-6.03-7.3c-0.75-1.27-1.89-2.25-3.24-2.95
	c-0.37-0.19-0.8,0.18-0.73,0.35c0.81,1.8,2.6,2.93,3.65,4.62c-2.26-0.28-2.62-2.59-4.23-3.65c-0.12-0.08-0.55,0.36-0.31,0.71
	c0.19,0.29,0.49,0.45,0.38,0.86c-2.33-0.88-2.11-5.02-4.03-4.5c-1.28,0.34,1.16,2.29,0.91,3.63c-0.22,1.19-1.97-3.08-2.39-2.84
	c-0.84,0.49,0.71,2.98,0.98,3.25c0.8,0.8,1.37,1.7,1.92,2.61c0.45,0.76-0.5,0.09-0.72,0.35c-1.18-1.02-1.39-3.04-2.59-3.49
	c-0.5-0.19-0.43,1.24-0.2,1.77c1.1,2.56,2.92,4.63,5.35,6.2c2.54,1.65,5.21,2.62,7.92,3.57c2.84,1,9.97,2.21,11.26,2.13
	c0.41-0.03,0.62-0.04,1.04-0.3c-5.52-0.83-9.98-2.03-10.69-2.35c-0.55-0.24,0.24-0.46-0.23-0.67c5.72,1.35,15.09,3.23,17.58,2.13
	c0.29-0.13,3.11,0.74,2.83,0.28C71.14,97.61,68.45,96.35,65.44,95.62z M46.38,94.78c-0.44-0.22-0.85-0.62-1.23-1.05
	c-0.71-0.59-1.44-1.22-2.18-1.9c0.7,0,1.39,1.02,2.18,1.9c0.55,0.46,1.1,0.89,1.63,1.28c1.04,0.59,2.2,1.49,3.68,2.23
	c-1.17-0.53-2.4-1.29-3.68-2.23C46.65,94.93,46.51,94.84,46.38,94.78z"/>
<path style="fill:#FFFFFF;" d="M38.88,65.54c1.57,1.68,1.88,3.93,2.93,5.84c1.41,2.56,4.24,2.85,6.99,2.55
	c0.23-4.69-1.94-9.86-6.33-11.42c-1.99-0.71-4.34-0.05-6.56-0.33c-0.03,0-0.06-0.63,0.01-0.65c2.83-0.86,6.54,0.55,8.67-1.79
	c0.26-0.28,0.26-1.8-0.07-1.9c-0.39-0.11-0.41,1.73-1.44,1.05c-1.07-0.7,0.26-3.12-0.35-2.86c-8.06,3.45-17.3,4.51-22.49,12.59
	c-2.88,4.48-4.69,10.18-1.83,14.88c0.51-4.67-0.11-13.8,8-18.57C30.23,62.69,35.32,61.73,38.88,65.54"/>
<path style="fill:#FFFFFF;" d="M40.76,54.98c0.65-0.8,1.9-2.08-0.18-2.49c-0.94,0-1.52,2.31-5.41,4.27
	c-2.18,1.1-19.25,5.25-18.08,14.1c-0.12-0.91,1.56-4.05,6.82-7.98c3.71-2.77,9.28-3.93,9.44-4.01
	C36.37,57.34,38.55,57.68,40.76,54.98"/>
<path style="fill:#FFFFFF;" d="M30.48,64.77c1.87-0.31,2.19-0.73,3.95-0.1c1.77,0.62,2.5,1.04,2.5,1.35c0,0.31-0.21,0.42-0.21,0.42
	S36,66.12,34.54,65.5c-1.46-0.62-1.35-0.83-2.6-0.62C30.69,65.08,30.48,64.77,30.48,64.77"/>
<path style="fill:#FFFFFF;" d="M26.73,81.43c-1.88-2.23-3.27-4.58-4.57-7.08c-2.28,7.27,5.62,11.53,9.99,15.82
	c-3.84-1-5.97-4.18-8.63-6.77c-1.32-1.29-1.94-3.13-2.61-4.88c-1.38,7.07,5.36,12.76,10.82,16.23c-3.01,1.49-7.18-6.14-9.26-5.62
	c2.18,3.43,7.7,6.12,7.93,7.46c0.19,1.07-4.27,2.91-1.16,4.81c5.95,3.64,12.45,1.53,18.31-0.82c0.15,0.7-0.83,1-0.71,1.15
	c1.06,1.25,2.62-0.37,4.05,0.08c3.66,1.14,7.43,1.51,10.81,3.36c-2.74,0.3-5.41-2.1-7.91-1.25c1.13,0.84,0.46,3.04,1.23,2.99
	c6.77-0.39,13.78-0.78,20-4.24c-0.74-0.5-1.12-1.82-2.04-1.52c-3.92,1.24-8.99,1.17-13.37,0.83c-5.43-0.42-10.56-1.96-15.34-4.41
	c-4.05-2.08-7.43-5.45-8.66-10.23c-0.25-0.97-1.79-1.19-2.98-1.54C30.26,85.07,28.42,83.44,26.73,81.43"/>
<path style="fill:#FFFFFF;" d="M21.2,95.67c-1.87-2.41-1.04-6.69-3.69-7.06c-1.34-0.18-1.44,2.88-2.62,4.29
	c-0.69,0.83-2.3-1.07-3.55,0.17c4.25,2.3,8.74,5.1,12.28,7.6c-0.77,0.27-1.66-0.03-2.21-0.28c-2.9-1.3-5.25-3.27-8.03-5.17
	c-1.54-1.05-3.23-1.22-4.98-1.57c-1.35-0.28-3.48,0.84-4.44,1.93c3.02-0.42,6.04-0.62,8.07,1.01c3.87,3.12,13.26,5.65,12.22,6.9
	c-4.25-0.93-8.16-3.05-11.84-5.56c-1.8-1.22-4.07-2.18-6.46-1.47c-4.06,1.21-5.87,5.71-3.76,9.52c0.86-2.3-0.19-5.71,2.55-6.46
	c6.11-1.67,10.26,3.85,15.45,5.77c3.89,1.44,8.15,1.85,12.38,1.99c0.66,0.02,0.19,1.18,0.83,1.12c4.31-0.4,8.9-2.88,11.93-5.8
	c0.16-0.15-1.36,0.13-1.68,0.33c-1.11,0.7-1.96,0.66-3.16,0.83c-0.32,0.05-0.96,0.43-1.27,0.46c-2.08,0.24-4.14,0.24-6.23,0
	c-0.31-0.04-0.52-0.59-0.86-0.69c-0.65-0.19-1.43,0.1-2.03-0.14c-2.15-0.87-3.66-2.65-5.73-3.89C23.03,98.71,22.26,97.04,21.2,95.67
	"/>
<path style="fill:#FFFFFF;" d="M27.67,98.38l1.35-1.35c0,0-3.54-2.39-4.37-3.43c-0.83-1.04-2.71-2.91-2.91-3.33
	c0,0,0.62,3.12,2.29,4.79C25.7,96.72,27.67,98.38,27.67,98.38"/>
<path style="fill:#FFFFFF;" d="M20.06,108.82c3.89-1.01,7.56,0.91,11.25,0.7c0.59-0.03,1.52-0.48,2.09-1.12
	c-6.24-1.87-13.67,0.25-18.77-4.87c-0.26-0.26-0.69,0.06-0.73,0.37c-0.29,2.21-0.33,5.22,1.71,5.95
	C16.83,110.29,18.49,109.23,20.06,108.82"/>
<path style="fill:#FFFFFF;" d="M44.96,108.89c0.04-1.61,0.63-2.9,1.6-4.27c0.2-0.28-0.71-0.42-1.05-0.23
	c-3.44,1.98-6.62,3.88-10.3,5.3c-1.06,0.41-4.65,1.42-3.1,2.49c0.97,0.67,4.22-1.75,6.69-2.04c-0.2,2.29-3.9,2.02-3.32,3.1
	c1.22,2.26,3.91-1.6,6.23-1.85c-0.03,0.45,0.17,0.98-0.41,1.25c0.2,0.29,0.48,0.62,0.8,0.37C43.57,111.86,44.91,110.72,44.96,108.89
	"/>
<path style="fill:#FFFFFF;" d="M50.43,109.27c1.31-0.78,2.32-1.93,2.87-3.32c0.08-0.19-0.21-0.52-0.34-0.8
	c-1.16-2.49-3.93-2.12-6.23-1.57c-0.67,0.16-1.66,1.63-1.22,1.49c1.2-0.36,3.55-0.89,4.47-0.57c2.11,0.74,1.23,3.3-0.35,4.4
	c-1.14,0.42-3.33,0.94-3.33,0.94l0.21,0.52c0,0,0.94,0.1,1.67-0.1C48.9,110.04,49.98,109.53,50.43,109.27"/>
<path style="fill:#FFFFFF;" d="M46.31,113.11c1.31-0.18,3.51-0.52,4.67-1.2c3.12-1.66-3.99,0.83-5.52,0.31
	c0.04,0.48-1.55,0.52-0.39,1.2C45.5,113.66,45.89,113.17,46.31,113.11"/>
<path style="fill:#FFFFFF;" d="M55.47,109.34c0.8-0.28,5.1-0.44,5.82-1.28c-1.59-0.24-6.12-0.11-8.33,0.92
	c-0.68,0.31-0.82,0.85-1.65,1.31C51.3,110.29,54.59,109.64,55.47,109.34"/>
<path style="fill:#FFFFFF;" d="M4.16,103.58c0.52-1.14,2.5-2.91,3.95-2.91c0,0-2.6-0.52-3.12,0.1
	C4.47,101.4,4.16,103.58,4.16,103.58"/>
<path style="fill:#FFFFFF;" d="M33.8,131.64c4.43-0.48,8.67-2.76,11.19-6.05c1.26-1.64-0.46-5.22,0.58-7.85
	c-5.41,1.46-12.64,4.48-19.19,6.35c-2.49,0.71-4.88,1.65-7.05,3.24c-3.18,2.34-8.02,5.47-6.75,9.87c1.56-2.96,3.26-5.62,6.26-7.47
	c2-1.24,4.23-1.49,6.33-2.24c2.69-0.95,5.64-1.76,8.64-1.53c-3.67,1.1-10.34,1.14-9.52,6.65c0.05,0.32,0.4,0.61,0.76,0.39
	c1.14-0.73,0.82-2.65,2.52-2.88c0.01,0.99-0.95,2.28-0.28,2.7C29.39,134.11,31.48,131.9,33.8,131.64"/>
<path style="fill:#FFFFFF;" d="M78.76,116.14c-0.42-0.03-1.18,1.07-1.48,0.56c-0.52-0.88,1.24-1.19,1.36-2
	c0.34-2.34,0.01-5.17-1.76-6.29c-1.72-1.08-4.33,0.4-6.32,1.19c-2.24,0.89-4.62,1.14-6.86,1.99c-0.85,0.33-2.25,0.84-3.25-0.2
	c5.54-1.09,11.05-2.42,16.1-4.86c0.34-0.17,0.23-2.28-1.06-2c-2.12,0.47-4.07,1.24-6.28,1.54c-0.72,0.1-0.69,1.33-1.29,1.44
	c-3.36,0.64-6.22,1.59-9.48,2.17c-3.45,0.62-5.58,0.66-7.83,2.26c-0.21,0.15,0.65,0.25,1.1,0.28c-4.6,2.3-9.77,2.51-14.52,4.29
	c-5.64,2.12-11.32,3.51-16.65,6.61c-2.96,1.73-5.89,3.23-7.12,6.58c-0.15,0.4,0.25,0.8,0.33,0.74
	c10.14-8.27,22.92-10.27,34.62-14.48c-0.36,0.75-1.55,1-1.51,1.66c0.03,0.53,1.15,0.58,1.51,1.26c1.19-2.22,2.41-5.75,5.36-4.85
	c1.29,0.4,2.34,1.26,3.76,1.64c0.6,0.16,1.33,0.46,1.7,1.13c0.28-0.28,0.63-0.78,0.79-0.72c2.48,0.86,3.31,3.54,5.19,5.11
	c0.67,0.56,2.13,0.42,3.13,0.07c2.57-0.9,1.61-4.93,4.62-5.71c-1.21,2.34-1.59,4.95-3.81,6.57c-1.33,0.97-3.69-0.21-4.21,1.05
	c-1.17,2.84,2.04,6.98,5.46,5.91c4.85-1.51,6.82-6.66,8.68-11.08C79.29,117.46,79.57,116.19,78.76,116.14z M74.62,112.86
	c-0.25,0.26-0.53,1.24-0.8,0.98c-0.14-0.14-0.05-0.5-0.05-0.78c0.83,0.06,1.37-1.44,1.95-0.72
	C76.24,112.98,75.04,112.43,74.62,112.86z"/>
<path style="fill:#FFFFFF;" d="M33.22,114.58c-0.94-0.6-2.27,0.41-3.47,0.84c-6.68,2.39-14.14,5.07-17.36,11.89
	c-2.17,4.6-3.87,11.88-1.89,16.75c0.52,0.73,0.93,0.65,0.79,0.1c-1.1-4.05-0.77-15.48,4.75-19.27c6.63-4.55,13.69-6.32,20.69-9.34
	C35.85,114.52,34.46,115.37,33.22,114.58"/>
<path style="fill:#FFFFFF;" d="M46.64,123.08c0.78,1.75,0.6,3.26,2.58,4.11c0.38,0.16,0.68-0.08,0.8-0.41
	c0.09-0.25-0.06-0.66,0.08-0.75c0.34-0.23,1.24-0.07,1.04-0.38c-1.28-2.03-1.87-7.48-4.66-5.29
	C46.04,120.7,46.19,122.07,46.64,123.08"/>
<path style="fill:#FFFFFF;" d="M64.17,127.64c-1.47-3.2,0.39-7.21-3.31-9.15c-0.37-0.19-0.7,0.07-0.78,0.4
	c-0.62,2.56,0.81,4.7,1.21,7.07c-0.28,0-0.69,0.08-0.76-0.04c-1.83-3.03-0.75-6.9-3.82-9.11c-1.36,3.24,1.87,6.25,1.67,9.57
	c-3.65-2.93-1.18-8.88-5.41-11.24c-1.45,3.54,1.12,7,1.66,10.41c-2.24-1.05-2.09-3.73-2.51-5.83c-0.14-0.72-0.3-1.65-0.57-1.91
	c-1.38-1.32-1.1,1.32-1.22,1.96c-0.41,2.18,1.75,3.97,2.22,6.19c-1.71-0.42-0.83,1.37-1.66,2.08c3.49,1.97,7.35,2.66,11.26,3.11
	c3.46,0.39,7.11,1.01,10.38-1.03C69.49,129.54,65.88,131.35,64.17,127.64z M54.63,128.04c-0.28-0.14-0.63-0.21-0.79-0.45
	c-0.13-0.2-0.14-0.62,0-0.75c0.27-0.26,0.64,0.05,0.76,0.38C54.68,127.47,54.63,127.76,54.63,128.04z M57.12,127.98
	c-0.99,0.05-0.12-0.82-0.41-1.19c0.4-0.11,0.67,0.1,0.81,0.42C57.69,127.6,57.42,127.96,57.12,127.98z M59.63,128.4
	c-0.63-0.09-0.4-0.74-0.43-1.19c0.28,0,0.56,0,0.83,0c-0.11,0.4,0.12,0.63,0.42,0.83C60.18,128.18,59.89,128.43,59.63,128.4z
	 M62.9,127.99c-0.14,0.14-0.63,0.14-0.72,0c-0.2-0.3-0.21-0.88,0-1.15c0.21-0.28,0.62,0.05,0.73,0.37
	C63.01,127.47,63.05,127.85,62.9,127.99z"/>
<path style="fill:#FFFFFF;" d="M46.72,129.63c0.96,0,2.75,0.31,2.56-0.22c-0.83-2.42-4.76-2.84-5.49-0.02
	C43.63,130.01,45.62,129.63,46.72,129.63"/>
<path style="fill:#FFFFFF;" d="M26.58,145.83c-2.42,2.02-4.8,3.34-7.76,3.78c-3.04,0.45-7.15-0.74-9.1-3.3
	c-2.14-2.07-2.93-5.26-3.03-8.27c-0.2-6.06,2.62-11.66,7.18-15.77c0.87-0.79,1.42-1.19,2.25-2.02c0.83-0.83,5.2-3.02,7.18-4.06
	c1.98-1.04,6.45-3.23,6.45-3.23l0.94,0.83c0,0-3.75,1.77-6.87,3.02c-3.12,1.25-6.45,3.23-9.24,5.74c-2.61,2.35-4.22,5.27-5.09,8.47
	c-1.33,4.9-2.07,10.42,1.23,15.19c4.57,2.64,8.63,1.95,12.22,0.82c0.88-0.28,1.71-0.86,2.61-1.43c1.28-0.81,2.01-1.54,3.47-2.16
	c1.46-0.62,2.29-0.94,3.12-0.73c0.83,0.21,0.73,0.62-0.31,0.73c-1.04,0.1-1.35,0.21-2.91,1.04
	C27.36,145.32,27.46,145.09,26.58,145.83"/>
<path style="fill:none;stroke:#000000;stroke-width:0.4165;" d="M73.15,120.76c1.29,2.23-1.94,4.06-3.76,4.51
	c-0.81,0.2-1.64,0.17-2.47,0.02c-0.33-0.06-0.53-0.65-0.43-0.65"/>
<path style="fill:none;stroke:#000000;stroke-width:0.4165;" d="M64.62,117.22c3.03-1.02,3.91-4.49,6.66-5.83"/>
<path style="fill:#FFFFFF;" d="M37.11,133.14c0-0.85-0.87-0.26-1.75-0.3c-2.99-0.13-4.83,0.64-7.48,2.54
	c-0.7,0.5-1.66-0.12-2.48-0.48c-0.69-0.3-1.78,0.62-2.83,0.21c1.15-1.44-0.84-3.15,0.42-4.58c-2.3-1.67-3.94,1.35-5.63,2.4
	c-2.8,1.74-3.42,5.19-4.26,8.44c-0.46,1.78,0.04,4.15,1.65,4.74c5.79,2.15,10.62-2.38,15.81-4.59c1.8-0.76,4.18-0.26,5.17,1.58
	c1.1,2.04,0.99,4.44-0.36,6.5c-1.31,2-4.47,2.32-4.9,4.32c-0.29,1.35,2.08,1.96,3.74,2.16c1.55,0.19,2.05,1.97,2.93,3.16
	C37.14,149.79,37.14,141.57,37.11,133.14"/>
<path style="fill:#FFFFFF;" d="M34.14,158.09c1.04,1.36,2.07,3.28,1.63,4.88c-0.33,1.22-2.07,1.31-2.68,1.03
	c-3.45-1.61-6.93-2.72-10.51-3.94c-0.42-0.14-0.99-0.6-1.14-0.32c-0.68,1.23,1.04,1.64,1.61,1.77c4.44,1.04,8.82,2.8,11.39,6.62
	c2.38,3.55,4.36,7.64,2.7,11.93c-7.44-10.46-13.69-18.03-25.6-25.29c3.9,4.91,9.89,7.78,13.87,12.86
	c3.98,5.09,8.65,9.19,11.11,15.01c1.71,4.05,1.5,8.79,0.62,13.23c-3.54-4.62-7.95-8.2-11.16-13.37c-0.81-1.3-2.89-4.32-3.82-5.98
	c-0.94-1.67-1.67-3.12-3.23-3.23c-1.56-0.1-1.46-0.21-1.98,0.52c-0.52,0.73,0.05,2.38,0.05,2.38c1.31,3.24,2.4,3.61,3.39,5.58
	c0.62,1.24,0.82,2.72,0.43,4.09c-0.8,2.78-5.36,5.91-6.45,4.25c-1.66-2.52-1.96-6.26-2.13-9.64c-0.18-3.75,1.72-7.48,0.34-11.23
	c-0.84,3.84-0.34,8.15-2.11,11.41c-1.14,2.1-0.51,5.48-2.59,6.03c-1.1,0.29-3.77-1.74-3.54-2.76c0.59-2.68,0.27-5.48,1.73-8.16
	c1.3-2.4,3.29-4.28,3.82-7.31c0.41-2.35-0.47-4.62,0.38-6.62c0.48-1.14,2.05-0.27,3.15-0.49c-0.77-1.84-2.57-0.28-3.79-1.18
	c-0.93-0.68-0.89-2.32-2.45-2.15c0.41,2.46,2.24,4.75,0.33,7c-1.19,1.4-1.94,3.03-3.36,4.08c-0.27,0.19-0.23-0.51-0.03-0.84
	c2.78-4.68,0.56-9.82-0.99-14.42c-0.3-0.9-1.26-3.79-0.42-4.67c1.12,2.03,2.91,5.85,4.55,7.53c0.21,0.21,0.76,0.07,1.18,0.07
	c-0.93-1.79-3.75-3.95-5.08-10.62c-0.08-0.41,0.29-0.81,0.31-0.74c1.33,5.12,5.9,12.47,9.76,14.27c-2.27-4.01-6.29-6.83-7.74-11.29
	c-0.86-2.64-1.64-5.47-0.85-8.23c0.03-0.09,0.51-1.6,0.98-0.42c0.42,1.03,0.21,2.44,0.85,3.49c0.66,1.08-1.43,0.11-0.92,1.53
	c2.07,5.79,7.64,10.25,13.92,10.34c-2.37-1.8-5.6-1.68-7.89-3.77c-1.33-1.22-2.72-2.17-4.34-4.91c-0.2-0.34,0.04-0.76,0.08-0.71
	c7.37,9.18,16.47,2.91,24.23,2.38c0.28-0.02,0.6,0.38,0.38,0.74c-1.44,2.28-4.95,4.27-2.72,6.97
	C30.6,157.27,32.87,156.74,34.14,158.09"/>
<path style="fill:#FFFFFF;" d="M35.63,167.1c0.32,0.73,0.99,1.43,1.52,2.14c0.71-1.53,0.71-3.05,0-4.58
	c-0.57,0.77-1.45,0.14-2.04,0.48C33.73,165.95,35.38,166.53,35.63,167.1"/>
<path style="fill:#FFFFFF;" d="M37.05,200.04c0.01-0.26-0.57-0.77-0.68-0.71c-1.31,0.65-0.6,3.33-2.97,3.22
	c1.23-1.86,2.38-3.83,2.03-6.24c-0.05-0.32-0.57-0.63-0.68-0.38c-1.57,3.56-4.15,6-8.01,6.58c-4.74,0.72-8.72-2.49-13.29-1.85
	c-0.48,0.07-1.34,0.2-1.78,1c-0.68,1.24-1.22,2.89-0.33,4.21c0.36-0.67,1.14-1.05,1.68-1.1c5.02-0.44,9.72,2.24,14.56,1.93
	c-0.11,0.4-1.59,1.27-1.33,1.22c-1.28,0.16-2.44,0.78-3.69,1.19c-1.5,0.49-3.09-0.55-4.5-0.16c-2.62,0.73-5.52,4.1-4.63,6.9
	c1.91-1.81,3.98-3.67,6.66-4.16c-1.11,2.05-3.69,2.23-4.95,4.19c-1.98,3.06-2.39,6.86-0.87,9.96c0.56-1.72,1.06-3.61,2.25-4.83
	c4.34-4.48,10.44-6.16,14.32-11.46c0.98-1.35,1.34-2.97,2.99-3.69c-0.24,3.46-3.56,5.91-5.2,8.86c-1.29,2.31-0.29,4.93,0.72,7.34
	c1.25,2.98,4.52,3.9,6.66,6.2c0.03,0.04,0.54-0.41,0.28-0.71c-3.13-3.66-6.22-7.96-4.53-12.94c-0.42,4.41,1.64,8.18,4.63,11.19
	c0.26,0.26,0.76-0.2,0.69-0.3C31.17,217.32,36.58,208.52,37.05,200.04z M31.69,205.43c-1.61,1.99-4.75,4.51-6.93,5.76
	c0-0.52,3.79-2.49,4.16-3.33c-0.46-0.08,1.4-0.86,0.97-0.81C31.33,205.93,30.38,206.71,31.69,205.43
	C31.94,205.12,31.82,205.3,31.69,205.43z"/>
<path style="fill:#FFFFFF;" d="M22.16,227.53c0.43,0.09,0.81-0.2,0.74-0.39c-0.68-1.78-1.85-3.31-3.66-4.18
	c-0.38-0.18-0.69,0.08-0.79,0.41C17.7,225.74,19.96,227.08,22.16,227.53"/>
<path style="fill:#FFFFFF;" d="M36.42,221.22c0.29,1,0.22,1.39,1.14,2.03c-0.37-5.41-0.73-9.68-0.31-15.19
	C36.07,212.51,35.37,217.64,36.42,221.22"/>
<path style="fill:#FFFFFF;" d="M12.79,207.13c-0.19,0.77-0.42-1.35,2.5-1.14c2.91,0.21,3.23,0.83,4.89,0.94
	c1.66,0.1,3.64,0.52,3.64,0.52s0,0.31-1.46,0.42c-1.46,0.1-2.08,0.31-4.16-0.31c-2.08-0.62-2.5-0.62-3.64-0.62
	C13.42,206.92,12.9,206.71,12.79,207.13"/>
<path style="fill:#FFFFFF;" d="M6.55,172.86c2.7-2.47,3.01-8.3,2.74-8.51c0,0-2.73,3.49-3.61,4.62c-1.71,2.18-4.03,3.4-2.88,8.92
	c-0.28,0-0.55,0.1-0.83,0.1c0.11-0.4-0.12-0.84-0.42-1.04c-1.02,1.95,1.21,4.85,2.29,6.45C4.11,177.16,3.11,176.01,6.55,172.86"/>
<path style="stroke:#000000;stroke-width:1.5932;" d="M105.83,161.97l-11.66,4.78l2.74-11.99c0,0-3.91-6.24-6.12-8.13l9.4-0.26
	l5.51-10.55c0.18-0.21,5.25,9.64,5.25,9.64c0.5,0.07,9.03,0.9,9.03,0.9c0,0.55-5.67,8.62-5.67,8.62c0.05,0.54,1.92,7.41,2.59,12.04
	L105.83,161.97z"/>
<polyline style="fill:#FFFFFF;" points="105.41,138.86 105.41,151.35 109.88,146.87 116.86,147.6 106.66,153.22 114.98,164.46 
	105.82,160.3 105.82,153.85 96.46,163.42 98.75,154.68 104.16,152.6 94.38,147.81 101.25,147.39 105.41,138.86 "/>
<path style="stroke:#000000;stroke-width:1.5932;" d="M147.04,161.97l-11.66,4.78l2.74-11.99c0,0-3.91-6.24-6.12-8.13l9.4-0.26
	l5.51-10.55c0.18-0.21,5.25,9.64,5.25,9.64c0.5,0.07,9.03,0.9,9.03,0.9c0,0.55-5.67,8.62-5.67,8.62c0.05,0.54,1.92,7.41,2.59,12.04
	L147.04,161.97z"/>
<polyline style="fill:#FFFFFF;" points="146.62,138.86 146.62,151.35 151.09,146.87 158.06,147.6 147.86,153.22 156.19,164.46 
	147.03,160.3 147.03,153.85 137.67,163.42 139.96,154.68 145.37,152.6 135.59,147.81 142.45,147.39 146.62,138.86 "/>
<polyline points="60.87,151.35 65.34,146.87 60.87,138.86 60.87,151.35 "/>
<polygon points="72.32,147.6 62.12,153.22 70.44,164.46 68.57,154.68 "/>
<polyline points="51.92,163.42 61.28,153.85 61.28,160.3 51.92,163.42 "/>
<polyline points="49.84,147.81 59.62,152.6 54.21,154.68 49.84,147.81 "/>
<polyline points="105.41,151.35 109.88,146.87 105.41,138.86 105.41,151.35 "/>
<polygon points="116.85,147.6 106.66,153.22 114.98,164.46 113.11,154.68 "/>
<polyline points="96.46,163.42 105.82,153.85 105.82,160.3 96.46,163.42 "/>
<polyline points="94.38,147.81 104.16,152.6 98.75,154.68 94.38,147.81 "/>
<polyline points="146.62,151.35 151.09,146.87 146.62,138.86 146.62,151.35 "/>
<polygon points="158.06,147.6 147.87,153.22 156.19,164.46 154.32,154.68 "/>
<polyline points="137.67,163.42 147.03,153.85 147.03,160.3 137.67,163.42 "/>
<polyline points="135.59,147.81 145.37,152.6 139.96,154.68 135.59,147.81 "/>
<path style="fill:#FFFFFF;stroke:#000000;stroke-width:0.8331;" d="M104.63,58.59c3.48-2.72,7.85-3.63,12.05-2.24
	c0.21,0.07,0.61-0.45,0.33-0.68c-2.96-2.56-3.73-5.88-4.32-9.6c-0.24-1.53-2.17-1.65-3.49-1.14c-3.95,1.54-8.39,3.33-12.54,2.36
	c-1.5,5.2-6.38,7.26-9.53,11.68c-0.24,0.34,0.09,0.74,0.37,0.73c4.46-0.19,8.82-0.47,13.33-0.03
	C102.16,59.81,103.41,59.54,104.63,58.59z"/>
<path style="fill:#FFFFFF;" d="M47.34,106.39c-0.42,1.04-0.83,2.5-0.83,2.5l1.87-0.62c0,0,1.25-0.62,1.46-1.25
	c0.21-0.62,0-1.67-0.83-1.46C48.17,105.77,47.34,106.39,47.34,106.39"/>
<path d="M47.26,109.24c0.64,0,1.16-0.54,1.16-1.21c0-0.67-0.52-1.21-1.16-1.21c-0.64,0-1.16,0.54-1.16,1.21
	C46.1,108.7,46.62,109.24,47.26,109.24"/>
<path style="fill:#00502F;" d="M40.29,61.21l-7.52-0.19l-1.25-1.66l-4.37,0.42c0,0-3.12,1.25-7.49,4.79
	c-2.3,1.86-0.62,2.5-0.83,3.33c-0.21,0.83-2.71,7.33-1.98,6.14c1.14-1.87,2.71-3.33,2.6-3.64c0,0,0.21,4.99,0,6.87
	c-0.21,1.87-0.21,3.33,0.42,6.04c0.62,2.71,2.6,5.83,2.6,5.83l-0.73,1.14c0,0,0.83,3.43,1.66,4.68c0.83,1.25,3.75,4.58,3.75,4.58
	l-0.31,1.04c-2.81-1.77-3.43-3.33-4.79-5.62c-1.35-2.29-2.19-5.41-2.6-6.87c-0.42-1.46-1.77-4.27-2.39-8.01
	c-0.62-3.75-0.04-7.37-0.18-9.51c-0.14-2.14,0.9-4.33,2.78-5.99c1.87-1.66,3.12-2.91,7.49-4.79c4.37-1.87,8.23-2.96,9.99-4.37
	c1.04-0.83,2.29-1.66,2.71-2.7c0.42-1.04,0.79-1.12,0-2.91c-0.79-1.8-1.28-2.95-1.58-4.18c-0.3-1.23-0.09-2.06-0.09-2.06
	s1.25,3.95,2.08,4.79c0.83,0.83,2.91,3.33,2.91,3.33s1.46,2.08,1.66,3.12c0.21,1.04,0.26,2.54,0,3.75c-0.26,1.21,0,2.39-3.95,2.6
	L40.29,61.21"/>
<path style="fill:#00502F;stroke:#00502F;stroke-width:0.5305;" d="M40.29,61.21l-7.52-0.19l-1.25-1.66l-4.37,0.42
	c0,0-3.12,1.25-7.49,4.79c-2.3,1.86-0.62,2.5-0.83,3.33c-0.21,0.83-2.71,7.33-1.98,6.14c1.14-1.87,2.71-3.33,2.6-3.64
	c0,0,0.21,4.99,0,6.87c-0.21,1.87-0.21,3.33,0.42,6.04c0.62,2.71,2.6,5.83,2.6,5.83l-0.73,1.14c0,0,0.83,3.43,1.66,4.68
	c0.83,1.25,3.75,4.58,3.75,4.58l-0.31,1.04c-2.81-1.77-3.43-3.33-4.79-5.62c-1.35-2.29-2.19-5.41-2.6-6.87
	c-0.42-1.46-1.77-4.27-2.39-8.01c-0.62-3.75-0.04-7.37-0.18-9.51c-0.14-2.14,0.9-4.33,2.78-5.99c1.87-1.66,3.12-2.91,7.49-4.79
	c4.37-1.87,8.23-2.96,9.99-4.37c1.04-0.83,2.29-1.66,2.71-2.7c0.42-1.04,0.79-1.12,0-2.91c-0.79-1.8-1.28-2.95-1.58-4.18
	c-0.3-1.23-0.09-2.06-0.09-2.06s1.25,3.95,2.08,4.79c0.83,0.83,2.91,3.33,2.91,3.33s1.46,2.08,1.66,3.12c0.21,1.04,0.26,2.54,0,3.75
	c-0.26,1.21,0,2.39-3.95,2.6L40.29,61.21z"/>
<path style="fill:#00502F;stroke:#00502F;stroke-width:0.5305;" d="M42.66,63.2l1.58-0.01c1.64,1.58,3.25,3.24,3.67,4.91
	s0.37,0.96,0.94,2.76c0.52,1.66-0.05,3.07-0.05,3.07s-2.39,0.42-3.85,0c-1.46-0.42-3.04-1.92-3.34-2.7
	c-0.3-0.78-0.92-2.24-1.34-3.28c-0.83-2.08-3.54-4.01-3.54-4.01s3.26,0.9,4.86-0.28C42.23,63.18,43,63.6,42.66,63.2z"/>
<path style="fill:#00502F;stroke:#00502F;stroke-width:0.5305;" d="M36.1,159.67c1.04,5-2.91,4.79-3.75,4.37
	c-0.83-0.42-0.41-0.62-4.16-1.87c-3.75-1.25-6.75-2.43-6.75-2.43l6.75,0.98l1.66-0.83c0,0,0.21,0,0.42-0.83
	c0.21-0.83-2.08-3.33-2.29-4.79c-0.21-1.46-0.21,0.42-2.5,1.46c-2.29,1.04-7.96-2.26-2.91-4.79c2.08-1.04,3.75-0.42,3.75-0.42
	s-1.04-1.04-2.91-0.62c-1.87,0.42-1.67,0.42-3.96,0.62c-3.34,0.3-3.12,0.42-3.75,0.83c-0.62,0.42-0.62,1.77-0.62,1.77
	s1.31,0.37,2.39,0.73c1.25,0.41,2.18,1.25,2.18,1.25l-3.75-0.42l-1.04-0.42c0,0,0.21,1.04,0.83,2.08c0.62,1.04,1.04,1.87,1.04,1.87
	l-2.08-1.46l-3.12-1.98l3.12,3.43l0.83,0.62l-1.87-0.83l-1.66-0.83l1.46,2.5l-2.08-1.25l0.62,1.87c0,0-0.26,0.35-1.56,0.21
	c-1.3-0.14-1.56-1.09-1.56-1.09l-1.66-1.4l0.42,1.25l0.42,2.08c0,0,0.42,0.83-0.42,1.04c-0.83,0.21-2.08,1.87-2.29,1.04
	c-0.21-0.83-0.21-2.7-0.83-4.37c-0.62-1.66-0.46-2.42-1.4-5.01c-1.05-2.9-0.99-6.01-0.89-7.89c0.1-2.03,0.29-4.49,0.62-5.62
	c0.62-2.08,2.81-6.97,2.81-6.97c0.42,0.1-0.22,0.67,0.2,5.25c0.23,2.56,1.05,7.34,3.96,9.22c2.91,1.87,6.56,3.12,9.68,2.5
	c3.12-0.62,5.2-1.66,6.87-2.91c1.67-1.25,1.11-1.3,3.78-2.31c-0.28,0.11,2.56-2.4,4.34-0.19c0.83,1.04,0.62,2.5-0.21,3.33
	c-0.83,0.83-3.96,2.08-4.79,3.75c-0.55,1.11-0.68,3.28-0.05,3.62c1.07,0.59,1.03,0.86,2.97,1.38
	C34.12,157.65,34.44,157.13,36.1,159.67z"/>
<path style="fill:#00502F;stroke:#00502F;stroke-width:0.5305;" d="M16.54,225.23c0.42,0.62,0.21,0.83,1.87,2.08
	c1.66,1.25,2.34,1.4,2.76,2.45c0.42,1.04,0.36,1.92,0.36,1.92s-2.08-0.83-3.54-1.87c-1.46-1.04-1.66-2.5-1.66-2.5L16.54,225.23z"/>
<path style="fill:#00502F;stroke:#00502F;stroke-width:0.5305;" d="M37.25,196.2c0.52-3.02,0.83-7.18,0.62-8.22
	c-0.21-1.04,0-1.25-0.42-2.6c-0.42-1.35-0.83-3.02-1.35-3.75c-0.52-0.73,0.1-2.6,0.1-2.6l1.04,1.2c0,0,0.78-3.02,0.57-4.37
	c-0.21-1.35-0.57-2.97-1.51-4.73c-0.94-1.77-2.5-4.16-3.02-4.58c0,0-1.87,1.14-2.81,1.04c-0.94-0.1-4.27-1.14-4.27-1.14l-1.04-1.14
	c0,0,0.83-1.56,1.56-1.46c0.73,0.1,1.56-0.62,1.56-0.62s-0.31-0.26-2.29-0.88c-1.98-0.62-1.25-0.26-3.95-1.2l-0.52,0.73l-1.77,0.73
	l-1.25,0.83l-0.94,0.42c0,0,1.04,2.29,1.35,3.43c0.31,1.14-0.42,0.73,1.66,2.08c2.08,1.35,1.98,0.52,3.02,2.08
	c1.04,1.56,0,1.35,1.98,2.08s2.29,1.04,2.91,1.87c0.62,0.83,1.25,1.56,0.83,2.19c-0.42,0.62-0.73,0.94-1.56,0.83
	c-0.83-0.1-1.35-0.1-1.67-0.62c-0.31-0.52-2.22-1.99-3.02-3.02c-0.73-0.94-1.98-2.19-2.18-2.39c-1.56-1.56-2.29-1.66-3.54-1.56
	c-1.25,0.1-1.87,0.83-1.87,0.83s-0.83,0.1-0.73,1.77c0.1,1.66,0.31,2.39,0.31,2.39s-0.1,0.31-1.04,0.94
	c-0.94,0.62-1.77,1.04-1.77,1.04s0,1.04,0,0c0-1.04-0.1-0.21-0.42-0.1c-0.31,0.1,0.1-1.04,0,0c-0.1,1.04-0.1-0.73-0.42,0
	c-0.31,0.73-0.73,0.31-1.14,0c-0.42-0.31-0.42-0.62-0.42-1.35c0-0.73,0.1-0.73-0.21-1.04c-0.31-0.31,0.31-0.31-0.42-0.42
	c-0.73-0.1-1.14,0.52-1.56,0c-0.42-0.52,0.73-0.21-0.52-0.73c-1.25-0.52-1.04-1.04-1.77-0.21s-1.14,1.35-1.14,1.87
	c0,0.52-0.62,0.52-0.62,0.52s-1.14-1.04-0.94-1.77c0.21-0.73,0.19-1.73,0.62-2.39c0.31-0.47,0.94-0.83,1.35-1.87
	c0.42-1.04,0.83-1.04,0.83-1.56c0-0.52-0.73-1.77-0.73-1.77s-0.83,1.56-1.56,3.12c-0.73,1.56-1.14,3.12-1.56,5.1
	c-0.42,1.98-0.73,2.45-0.1,4.32c0.62,1.87,2.39,5,3.85,6.24c1.46,1.25,2.91,1.3,2.91,1.3s0.94-1.46,1.14-2.18
	c0.21-0.73,0.52-2.81,1.04-3.23c0.52-0.42,0.42-0.62,0.83,0.1c0.42,0.73,0.83,1.66,1.04,2.29c0.21,0.62,0.26,1.98,0.57,3.02
	c0.31,1.04,0.29,2.46,1.21,3.13c0.92,0.67,1.08,0.62,1.34,0.56c1.42-0.28,2.81-1.35,2.81-1.35c0.42-0.21,2.73-1.74,2.83-3.82
	c0.1-2.08-0.33-3.83-1.58-5.49c0,0-2.19-2.81-2.5-3.64c-0.33-0.88-0.42-2.91,0.73-2.91c1.14,0,2.13-0.21,2.76,0.83
	c0.62,1.04,4.09,6.2,4.63,7.08c0.83,1.35,1.93,2.76,3.07,4.42s3.69,4.01,4.84,5.36C34.23,192.56,37.25,196.2,37.25,196.2z"/>
<path style="fill:#00502F;stroke:#00502F;stroke-width:0.5305;" d="M194.28,175.91c-0.62,0.73-0.94,0.21-2.08,1.66
	c-1.14,1.46-1.98,1.87-2.6,3.23c0,0-0.16,0.78-0.05,2.03c0.1,1.25,0.47,1.87,0.99,2.81c0.52,0.94,1.23,2.5,1.56,3.07
	c0.73,1.25,2.71,1.46,3.33,1.87c0.63,0.42,1.67,0.62,1.67,0.62s0.62,0.21,0.31-1.14c-0.31-1.35-0.57-3.28-0.26-4.11
	c0.31-0.83,0.88-2.86,0.88-3.49c0-0.38,1.87,0.21,1.87,0.21s0.62,1.46,0.94,2.6c0.31,1.14,0.57,1.56,0.52,1.98
	c-0.09,0.75,0,2.29,0,2.29s0.94,0.31,1.56-0.1c0.62-0.42,1.98-1.25,2.81-2.29c0,0,1.04-0.52,1.66-2.19
	c0.63-1.66,1.46-4.11,1.04-7.07c-0.23-1.66-0.08-2.65-0.62-4.16c-0.55-1.52-0.94,0.94-0.94,0.94l-1.25-1.35l-0.42,2.08l-0.94,2.08
	c0,0-1.46-1.98-1.56-2.6c-0.1-0.62-1.98-0.21-2.08-1.25c-0.1-1.04,0.31,0.73,0.1,1.98c-0.21,1.25,0.63,1.77,0,2.5
	c-0.62,0.73-1.87,3.02-1.87,3.02s0.1,0.76-0.84-0.17c-0.94-0.94-0.93-1.91-1.87-3.47C195.21,175.91,194.28,175.91,194.28,175.91z"/>
<path style="fill:#00502F;stroke:#00502F;stroke-width:0.5305;" d="M205.1,132.93c1.14,3.02,1.56,5.1,1.46,7.6
	c-0.1,2.5,0,5.2-0.21,6.24c-0.21,1.04,0,6.66-0.31,7.6c-0.31,0.94-0.89,4.94-0.78,7.44c0.1,2.34,0.68,4.84,0.68,4.84
	s-1.14,0-1.35,0.31c-0.21,0.31-0.93,0.1-1.25,0.31c-0.31,0.21-0.1,0.62-0.73-0.1c-0.62-0.73-0.83-0.62-1.35-1.98
	c-0.52-1.35-0.62-2.29-0.62-2.29s1.14-0.73-0.31-1.35c-1.46-0.62-1.14,0.73-1.77-1.35c-0.62-2.08-1.04-2.5-2.6-2.19
	c0,0,0.93-1.25,0.52-2.5c-0.42-1.25-3.23-2.7-3.23-2.7l-0.31-0.62c0,0-0.42-1.87-1.87-2.29l4.58,0.1c0,0,3.64-0.94,4.89-1.87
	c1.25-0.94,2.71-1.46,3.43-4.58c0.73-3.12,1.04-6.14,0.94-7.28c-0.1-1.14-0.31-2.6-0.31-2.6L205.1,132.93z"/>
<path style="fill:#00502F;stroke:#00502F;stroke-width:0.5305;" d="M187.1,148.23c-2.55-1.87-4.21-3.12-5.41-3.9
	c-2.66-1.74-4.73-1.87-5.46-1.66c-0.73,0.21-0.88,0.31-0.88,0.31s-0.31,3.28-0.31,3.8c0,0.52,0.36,2.5,1.51,3.43
	c1.14,0.94,2.34,1.77,3.07,2.18c0.73,0.42,1.46,1.56,1.46,1.56s-2.18,0.31-3.43,0.94c-1.25,0.62-2.5,1.98-3.02,2.91
	c-0.52,0.94-1.19,2.4-0.94,3.54c0.26,1.14,0.31,1.14,1.25,1.25c0.94,0.1,3.23,0,4.47,0c1.25,0,4.37-0.31,4.89-0.31
	c0.52,0,1.87-0.52,1.87-0.52s-2.84,2.15-5.1,4.16c-1.87,1.66-2.13,2.55-4.21,4.74c-2.08,2.18-3.8,4.73-4.32,5.57
	c-0.52,0.83-1.04,1.25-1.14,1.77c-0.12,0.6-1.27,3.01-0.1,4.37c0.62,0.73,0.42,1.04,0.42,1.04s-0.31,2.71-0.42,3.33
	c-0.1,0.62-0.57,1.82-0.47,2.24c0.1,0.42-0.05,2.34-0.05,2.34l0.31,1.51c0,0,2.09-5.18,5.32-9.24c3.23-4.06,4.88-6.32,7.38-9.23
	c2.5-2.91,2.39-2.91,3.54-4.48c1.14-1.56,1.77-1.98,2.18-2.7c0.44-0.78-0.83-0.52-0.62-1.04c0.21-0.52,0.93-1.25,0.62-1.77
	c-0.31-0.52-1.14-2.5-1.14-2.5l0.21-0.73c0,0,1.98-1.56,2.29-1.87c0.31-0.31,0.62-0.62,1.04-1.25c0.42-0.62,1.87-0.83,0-1.14
	c-1.87-0.31-2.29-1.46-2.29-1.46l-4.06-0.52c0,0-1.25-1.14-0.42-1.46c0.83-0.31,0.62,0.21,1.46-0.94c0.83-1.14,0.94-1.35,0.73-1.87
	C187.1,150.1,187.1,148.23,187.1,148.23z"/>
<path style="fill:#00502F;stroke:#00502F;stroke-width:0.5305;" d="M209.68,107.33c1.59-1.76,1.98-3.23,1.66-4.79
	c-0.31-1.56-0.88-3.43-2.55-4.58c-1.66-1.14-0.99-1.14-2.76-1.66c-1.77-0.52-2.45-0.47-4.01-0.26c-1.56,0.21-1.93,0.88-1.93,0.88
	s-0.31,0.73-0.42,1.35c-0.1,0.62,0.83,0.52-0.21,1.67c-1.04,1.14-2.08,1.66-2.08,1.66s1.87-0.21,2.29,0.42
	c0.42,0.62,1.06,1.11,1.06,1.11s0.29,0.04,1.54-0.06c1.56-0.13,2.81,0.1,4.16,0.73c1.35,0.62,1.35,0.62,1.98,1.25
	C209.05,105.67,209.68,107.33,209.68,107.33z"/>
<path style="fill:#00502F;stroke:#00502F;stroke-width:0.5305;" d="M186.89,95.05c0,0.62-0.31,0.21,0.1,1.46
	c0.42,1.25,0.52,1.67,0.42,2.19c-0.1,0.52-0.42,2.29-0.42,2.29s1.67-0.1,1.67,0.31c0,0.42,0.1,1.04,0.1,1.04l1.25,0.73
	c0,0,3.12-2.24,4.27-3.28s1.69-2.09,2.51-3.51c0.82-1.43,1.24-3.09,1.24-3.09s-0.93-0.81-3.43-0.62c-2.76,0.21-4.68,0.88-5.31,1.2
	C188.66,94.06,186.89,95.05,186.89,95.05z"/>
<path style="fill:#00502F;stroke:#00502F;stroke-width:0.5305;" d="M197.5,111.49c-2.29-0.42-5.1-0.83-6.66-1.04
	c-1.96-0.26-4.58,0.52-6.87,1.14c-2.29,0.62-4.68,1.56-5,1.77c-0.31,0.21-1.25,0.42-1.25,0.42s3.02-0.42,4.16-0.52
	c1.14-0.1,2.81-0.52,5.31-0.94c2.5-0.42,4.68-0.42,6.24-0.52C195,111.7,197.5,111.49,197.5,111.49z"/>
<path style="fill:#00502F;stroke:#00502F;stroke-width:0.5305;" d="M123.62,103.9c0.21,1.66,0.73,3.64,1.25,4.89
	c0.52,1.25,1.46,2.81,2.29,3.33c0.83,0.52,2.81,0.1,3.12-0.1c0.31-0.21,1.34-0.25,1.34-0.25s1.36-0.27,1.88,0.04
	c0.52,0.31,0.52,0.52,1.46,1.66c0.94,1.14,0.67,2.11,6.76,5.62c5.88,3.38,13.31,5.31,16.34,5.52c3.85,0.26,6.35,0.26,8.43-0.05
	c2.08-0.31,6.13-1.26,6.13-1.26s-0.41-2.22-1.24-3.37c-0.83-1.14-0.62-1.35-1.77-1.77c-1.14-0.42-2.5-0.57-3.54-0.57
	c-1.04,0-2.71-0.16-5.1-0.26c-2.39-0.1-2.71,0.1-6.76-0.52c-4.06-0.62-4.47-0.62-7.91-2.08c-3.89-1.65-5.93-2.39-6.87-3.23
	c-1.87-1.66-4.48-3.33-5.72-4.58c-1.25-1.25-1.25-1.77-2.29-2.39c-1.04-0.62-1.98-0.31-4.27-0.21
	C124.87,104.42,123.62,103.9,123.62,103.9z"/>
<path style="fill:#00502F;stroke:#00502F;stroke-width:0.5305;" d="M164.2,99.01c0.31,1.04,0.31,1.77,0.31,2.91
	c0,1.14-0.1,2.18-1.04,4.27c-0.85,1.9-2.22,2.23-3.12,2.6c-0.9,0.37-1.35,1.04-2.29,0.73c-0.94-0.31-2.71-0.94-3.02-1.87
	c-0.38-1.15-0.99-2.25-0.41-3.23c0.73-1.25,1.87-2.03,2.71-2.03c0.83,0,2.81,0,2.81,0l0.21,1.2c0,0-1.66-0.52-3.17-0.16
	c-1.51,0.36-1.4,1.51-1.4,1.51l0.94,1.98c0,0,1.03,0.51,1.67,0.47c0.78-0.05,2.29-0.68,2.7-1.3c0.42-0.62,1.35-1.87,1.56-3.23
	c0.21-1.35-0.42-2.81-0.62-3.12c-0.21-0.31,0.1-0.31,0.1-0.31L164.2,99.01z"/>
<path style="fill:#00502F;stroke:#00502F;stroke-width:0.5305;" d="M115.71,65.91c1.35-0.1,1.35-0.52,2.08-0.73
	c0.73-0.21,2.29-0.21,4.06,0.83c1.77,1.04,3.12,2.08,4.37,3.95c1.25,1.87,2.29,3.95,2.91,5.72c0.62,1.77,0.62,2.81,1.25,4.68
	c0.62,1.87,1.26,5.53,1.62,5.99c0.36,0.46,0.25,0.67-0.89,0.98c-1.14,0.31-1.66,0.21-2.18,0.52c-0.52,0.31-1.35,0.73-1.35,0.73
	s-0.62-0.62-1.56-1.04c-0.86-0.38-1.66,0.41-2.29,1.04c-0.62,0.62-1.66,0.83-2.19,1.46c-0.52,0.62-1.14,1.56-1.77,2.19
	c-0.62,0.62-0.94,1.56-1.77,1.66c-0.83,0.1-1.46-0.21-2.08-0.94c-0.62-0.73-1.16-3.24-1.25-3.64c-0.31-1.35-0.31-4.58-0.31-4.58
	l1.66,0.94c0,0,1.04-1.04,1.14-1.56c0.1-0.52,0.73-0.94,1.04-0.73c0.31,0.21,0.42,0.73,1.04,0.1c0.62-0.62,0.31-2.19,0.31-2.19
	s-0.52-0.42,0.83,0.21c1.35,0.62,1.98,0.62,2.08,0.21c0.1-0.42,0.62-3.33,0.62-3.33s-0.31,0.31,0.73,0.31
	c1.04,0,1.56-3.85,1.56-4.37c0-0.52-0.42-0.21,0,0c0.42,0.21-0.73-2.81-0.73-2.81s-1.04-2.29-2.39-3.12
	c-1.35-0.83-2.6-1.25-3.33-1.25s-0.52,0-1.14-0.31c-0.62-0.31-0.31-0.1-1.35-0.1C115.4,66.75,115.71,65.91,115.71,65.91z"/>
<path style="fill:#00502F;stroke:#00502F;stroke-width:0.5305;" d="M182.93,71.85c0.83,1.25,2.71,3.95,3.43,5.83
	c0.73,1.87,0.94,3.23,0.94,5.1c0,1.87,0.26,2.16-0.18,3.58c-0.44,1.42-0.96,2.87-1.9,4.12c-0.93,1.25-2.18,1.66-2.91,2.39
	c-0.73,0.73-2.08,1.66-3.23,2.08c-1.67,0.61-1.77-0.42-3.02,0.21c-1.25,0.62-0.99,1.09-2.24,1.09c-1.25,0-1.3-0.36-1.93-0.16
	c-0.62,0.21-2.08,1.04-2.08,1.04s-0.31-0.31,0.42-0.94c0.73-0.62,0.42-1.25-0.42-0.94c-0.83,0.31-0.21-0.31-0.1-0.94
	c0.1-0.62,0.31,0.1,0-0.94c-0.31-1.04,0.41-1.87,0.41-1.87s-2.94,2.07-3.48,2.44c-0.68,0.47-0.73,0.57-1.92,1.2
	c-1.08,0.56-1.8,1.25-2.03,0.78c-0.18-0.35-0.17-0.49-0.03-0.66c0.88-1.09,1.02-1.37,1.02-1.37s-1.72,1.25-3.12,1.98
	c-0.87,0.45-3.23,1.56-4.58,2.08c-1.35,0.52-2.81,0.83-4.16,1.14c-1.35,0.31-4.58,0.62-7.28,0.42c-2.71-0.21-4.68-0.62-5.41-0.94
	c-0.73-0.31,0.62-3.33,0.62-3.33s1.14,0.94,2.08,1.25c0.94,0.31,3.33,0.62,5.83,0.31c2.5-0.31,6.14-0.94,8.53-2.19
	c2.39-1.25,7.49-4.68,7.91-5.31c0,0,0.73,1.04,1.56,1.14c0.83,0.1,1.8,0.36,2.5-0.42c0.94-1.04,1.25-1.98,1.77-2.81
	c0.52-0.83,1.3-1.92,2.34-2.55c1.04-0.62,1.93-0.99,2.65,0.16c0.73,1.14,0.94,2.08,0.94,2.08s1.35-0.83,1.77-1.14
	c0.42-0.31,2.29-2.29,2.91-3.33c0.62-1.04,2.1-3.81,2.29-4.47c0.19-0.66,0.31-2.39,0.31-3.23c0-0.83-0.21-2.6-0.21-2.6"/>
<path style="fill:none;stroke:#000000;stroke-width:0.6248;" d="M164.31,44.17c-1.87,2.08-2.91,3.33-2.91,3.33"/>
<path style="fill:none;stroke:#000000;stroke-width:0.6248;" d="M160.56,43.75c-1.04,1.04-2.71,1.67-3.12,3.12
	c-0.42,1.46-0.83,2.5-0.83,2.5"/>
<path style="fill:none;stroke:#000000;stroke-width:0.6248;" d="M184.49,81.84c-0.83,2.71,0,1.66-1.66,5
	c-1.67,3.33-1.87,3.75-3.96,5.41c-2.08,1.66-3.59,2.86-6.09,3.9c-2.5,1.04-3.49,1.51-4.94,2.34c-1.46,0.83-3.12,1.46-3.12,1.46"/>
<path style="fill:none;stroke:#000000;stroke-width:0.6248;" d="M193.03,102.65c3.75-1.04,6.87-1.87,8.53-2.08
	c1.66-0.21,2.5-0.62,4.16,0.42c1.66,1.04,2.91,1.04,3.33,2.5"/>
<path style="fill:none;stroke:#000000;stroke-width:0.6248;" d="M198.02,93.18c-1.46,1.35-4.58,3.02-5.83,4.06
	c-1.25,1.04-4.79,3.75-6.24,4.79c-1.46,1.04-1.46,1.46-3.95,2.29c-2.5,0.83-5.62,2.29-6.45,2.5"/>
<path style="fill:none;stroke:#000000;stroke-width:0.6248;" d="M129.76,88.29c-1.04-2.29-1.87-6.04-2.91-9.57
	c-1.04-3.54-1.87-5.2-2.29-6.24"/>
<path style="fill:none;stroke:#000000;stroke-width:0.6248;" d="M125.39,87.87c-0.83-3.95-1.87-7.08-2.29-9.47"/>
<path style="fill:none;stroke:#000000;stroke-width:0.6248;" d="M121.64,90.79c-0.83-4.79-2.08-9.57-2.29-10.41"/>
<path style="fill:none;stroke:#000000;stroke-width:0.6248;" d="M118.94,94.12c-1.66-2.08-2.29-3.75-2.71-6.87
	c-0.42-3.12-0.75-7.12-1.04-9.05"/>
<path style="fill:none;stroke:#000000;stroke-width:0.6248;" d="M133.5,109.31c2.08,1.46,1.87,1.87,6.66,4.79
	c4.79,2.91,7.08,4.58,10.82,5.41c3.75,0.83,3.33,1.04,7.28,1.04c3.95,0,3.95,0.42,6.66,0.42"/>
<path style="fill:none;stroke:#000000;stroke-width:0.6248;" d="M127.47,105.56c0.83,1.66,1.66,3.75,2.91,5.41"/>
<path style="fill:none;stroke:#000000;stroke-width:0.6248;" d="M138.71,99.32c1.87,0.42,5.2,1.04,10.2,0.42
	c5-0.62,7.7-1.46,11.66-3.85"/>
<path style="fill:none;stroke:#000000;stroke-width:0.6248;" d="M160.56,97.45c1.87-1.46,5.62-2.08,7.28-3.75
	c1.66-1.66,4.09-2.74,4.58-4.79c0.49-2.04,1.04-2.5,1.25-3.33"/>
<line style="fill:none;stroke:#000000;stroke-width:0.6248;" x1="145.99" y1="221.9" x2="148.49" y2="223.88"/>
<path style="fill:none;stroke:#000000;stroke-width:0.6248;" d="M197.5,191.73c-1.35-2.08-1.35-1.87-2.08-4.27
	c-0.73-2.39-1.14-4.79-1.14-5.93c0-1.14,0.21-3.23,0.21-3.54"/>
<path style="fill:none;stroke:#000000;stroke-width:0.8331;" d="M198.49,183.66c0.31-1.42,0.36-2.97-0.05-4.21
	c-0.42-1.25-0.83-2.29-0.73-3.33c0.1-1.04,0.21-3.02,0.41-3.54"/>
<path style="fill:none;stroke:#000000;stroke-width:0.6248;" d="M177.83,162.69c-1.25-0.73-1.66-0.62-1.87-1.46
	c-0.21-0.83-0.94-1.14,0.42-2.91c1.35-1.77,1.56-1.66,2.71-1.98c1.14-0.31,4.48-1.35,8.32-1.46c0,0-1.56-0.1-4.06-0.83
	c-2.5-0.73-4.06-1.25-5.31-2.08"/>
<path style="fill:none;stroke:#000000;stroke-width:0.4165;" d="M180.02,147.81c1.98,1.35,3.12,2.6,5.52,3.33
	c2.39,0.73,4.79,1.14,6.66,1.14c1.87,0,3.95,0.21,5.52-0.42c1.56-0.62,4.68-3.02,5.62-5.52"/>
<path style="fill:none;stroke:#000000;stroke-width:0.6248;" d="M175.96,163.32c3.33-0.21,5.31,0,7.49-0.31
	c2.19-0.31,5.62-1.14,7.18-1.87c1.56-0.73,6.14-3.33,7.59-4.47c0,0,2.92-1.77,4.16-3.43c1.25-1.66,3.33-4.79,3.85-6.04
	c0.52-1.25,1.14-3.43,1.14-3.75"/>
<path style="fill:none;stroke:#000000;stroke-width:0.6248;" d="M186.78,162.48c-1.25,1.14-2.39,2.6-3.43,4.06
	c-1.04,1.46-2.08,2.18-3.33,3.85c-1.25,1.66-2.29,2.81-3.54,4.47c-1.25,1.66-1.87,2.6-2.7,4.27c-0.83,1.66-2.18,2.81-2.39,4.27"/>
<path style="fill:none;stroke:#000000;stroke-width:0.6248;" d="M204.58,185.9c0.52-0.94,1.04-1.14,1.35-3.54
	c0.31-2.39,0.52-4.48,0-6.97c-0.52-2.5-0.73-3.75-1.56-6.35c-0.83-2.6-1.87-4.47-2.39-5.62c-0.52-1.14-0.31-2.59-0.31-3.95
	c0-1.29,0.83-4.27,1.14-5.31c0.31-1.04,1.25-2.5,1.77-3.33c0,0,1.77-3.64,1.98-4.58"/>
<path style="fill:none;stroke:#000000;stroke-width:0.8331;" d="M198.88,184.05c0.32-1.42,0.16-2.86-0.26-4.11"/>
<path style="fill:none;stroke:#000000;stroke-width:0.6248;" d="M201.46,188.81c1.25-1.14,1.66-1.56,1.98-3.12
	c0.31-1.56,0.73-3.54,0.73-4.68c0-1.14,0.21-2.5-0.21-4.89"/>
<g>
	<path d="M84.96,133.21c0.41,0.33,0.93,0.28,0.93,0.28s0.57,0.07,0.91-0.78c0.28-0.69,0.08-1.2-0.69-1.52c0,0-0.72-0.35-1.3,0.17
		c-0.48,0.44-0.03,0.77,0.13,0.58c0.22-0.25,0.11-0.07,0.39-0.29c0.28-0.22,0.55,0,0.81,0.19c0.49,0.34,0.32,0.71,0.02,1.02
		l-0.23,0.09c0,0-0.3,0.07-0.5-0.04c-0.2-0.11-0.35-0.25-0.46-0.35c-0.11-0.1-0.2-0.07-0.35,0.13
		C84.63,132.67,84.67,132.99,84.96,133.21"/>
	<path d="M91.77,134.13c0.07-0.52-0.23-0.94-0.23-0.94s-0.23-0.53-1.13-0.39c-0.74,0.11-1.07,0.54-0.97,1.37c0,0,0.07,0.8,0.8,1.03
		c0.62,0.2,0.68-0.36,0.43-0.41c-0.32-0.06-0.12-0.06-0.45-0.19c-0.33-0.13-0.27-0.47-0.25-0.79c0.05-0.6,0.45-0.63,0.87-0.53
		l0.19,0.15c0,0,0.21,0.23,0.22,0.45c0.01,0.22-0.04,0.43-0.07,0.57c-0.03,0.15,0.05,0.21,0.29,0.24
		C91.47,134.68,91.72,134.49,91.77,134.13"/>
	<path d="M113.95,119.09c-0.06,0.66,0.34,1.16,0.34,1.16s0.31,0.65,1.44,0.43c0.91-0.18,1.31-0.73,1.13-1.76
		c0,0-0.12-0.99-1.06-1.24c-0.79-0.21-0.83,0.49-0.52,0.53c0.41,0.06,0.15,0.07,0.57,0.21c0.42,0.14,0.37,0.57,0.36,0.98
		c-0.03,0.75-0.53,0.81-1.05,0.71l-0.24-0.18c0,0-0.28-0.27-0.3-0.55c-0.02-0.28,0.03-0.54,0.05-0.72c0.02-0.19-0.07-0.26-0.37-0.28
		C114.3,118.38,114,118.64,113.95,119.09"/>
	<path d="M103.64,77.26c-0.83-0.62-1.66-0.62-2.08,0.21c-0.42,0.83-0.21,1.04-0.21,1.04s0.83,0.62,0.83-0.1s0-1.25,0.62-0.83
		c0.62,0.42,0.73,0.73,0.94,0.42C103.95,77.67,103.64,77.26,103.64,77.26"/>
	<path d="M104.82,83.87c-0.29,1-0.96,1.5-1.79,1.08c-0.83-0.42-0.79-0.71-0.79-0.71s0.3-1,0.73-0.41c0.43,0.58,0.74,1,1,0.29
		c0.25-0.71,0.15-1.02,0.5-0.89C104.82,83.35,104.82,83.87,104.82,83.87"/>
	<path d="M104.92,86.37c-0.29,1-0.96,1.5-1.79,1.08c-0.83-0.42-0.79-0.71-0.79-0.71s0-0.74,0.83-0.1c0.42,0.32,0.64,0.69,0.89-0.02
		c0.25-0.71,0.15-1.02,0.5-0.89C104.93,85.85,104.92,86.37,104.92,86.37"/>
	<path d="M104.58,85.27c-0.83-0.62-1.66-0.62-2.08,0.21c-0.42,0.83-0.21,1.04-0.21,1.04s0.83,0.62,0.83-0.1c0-0.73,0-1.25,0.62-0.83
		c0.62,0.42,0.73,0.73,0.94,0.42C104.89,85.69,104.58,85.27,104.58,85.27"/>
	<path d="M102.03,90.33c-0.35,0.56-0.21,1.19-0.21,1.19s-0.01,0.72,1.1,1.02c0.9,0.24,1.5-0.08,1.79-1.08c0,0,0.33-0.94-0.4-1.58
		c-0.61-0.54-0.96,0.07-0.7,0.25c0.34,0.23,0.1,0.13,0.42,0.44c0.31,0.31,0.08,0.68-0.11,1.03c-0.35,0.66-0.83,0.49-1.26,0.17
		l-0.14-0.27c0,0-0.13-0.36-0.03-0.62c0.1-0.26,0.26-0.47,0.36-0.62c0.1-0.16,0.05-0.26-0.21-0.42
		C102.65,89.85,102.27,89.95,102.03,90.33"/>
	<path d="M104.22,106.04c-0.35,0.56-0.21,1.19-0.21,1.19s-0.01,0.72,1.1,1.02c0.9,0.24,1.5-0.08,1.79-1.08c0,0,0.33-0.94-0.4-1.58
		c-0.61-0.54-0.96,0.07-0.7,0.25c0.34,0.23,0.1,0.13,0.42,0.44c0.31,0.31,0.08,0.68-0.11,1.03c-0.35,0.66-0.83,0.49-1.26,0.17
		l-0.14-0.27c0,0-0.13-0.36-0.03-0.62c0.1-0.26,0.26-0.47,0.36-0.62c0.1-0.16,0.05-0.26-0.21-0.42
		C104.84,105.56,104.45,105.66,104.22,106.04"/>
	<path d="M108.38,113.43c-0.35,0.56-0.21,1.19-0.21,1.19s0,0.72,1.1,1.02c0.9,0.24,1.5-0.08,1.79-1.08c0,0,0.33-0.94-0.4-1.58
		c-0.61-0.54-0.96,0.07-0.7,0.25c0.34,0.23,0.1,0.13,0.42,0.44c0.31,0.31,0.08,0.68-0.11,1.03c-0.35,0.66-0.83,0.49-1.26,0.17
		l-0.14-0.27c0,0-0.13-0.36-0.03-0.62c0.1-0.26,0.26-0.47,0.36-0.62c0.1-0.16,0.05-0.26-0.21-0.42
		C109,112.95,108.61,113.05,108.38,113.43"/>
	<path d="M102.76,98.34c-0.35,0.56-0.21,1.19-0.21,1.19s-0.01,0.72,1.1,1.02c0.9,0.24,1.5-0.08,1.79-1.08c0,0,0.33-0.94-0.4-1.58
		c-0.61-0.54-0.96,0.07-0.7,0.25c0.34,0.23,0.1,0.13,0.42,0.44c0.31,0.31,0.08,0.68-0.11,1.03c-0.35,0.66-0.83,0.49-1.26,0.17
		l-0.14-0.27c0,0-0.13-0.36-0.03-0.62c0.1-0.26,0.26-0.47,0.36-0.62c0.1-0.16,0.05-0.26-0.21-0.42
		C103.38,97.86,103,97.96,102.76,98.34"/>
</g>
<path style="fill:none;stroke:#000000;stroke-width:0.6248;" d="M7.8,156.66c-1.66-2.39-3.85-5.93-4.47-7.49
	c-0.62-1.56-0.73-3.12-0.73-4.06"/>
<path style="fill:none;stroke:#000000;stroke-width:0.6248;" d="M12.79,159.26c-1.14-1.46-2.6-3.02-3.85-4.68
	c-1.25-1.67-2.29-3.12-3.12-4.79c-0.83-1.67-1.25-2.29-1.46-3.64c0.07,0.46-0.21-1.46-0.31-3.43c-0.05-0.94-0.01-2.49,0.73-3.23"/>
<path style="fill:none;stroke:#000000;stroke-width:0.6248;" d="M19.24,154.99c-3.43-1.04-4.06-0.83-6.24-2.39
	c-2.19-1.56-3.85-2.91-4.89-4.37c-1.04-1.46-1.77-3.23-1.87-3.96"/>
<path style="fill:none;stroke:#000000;stroke-width:0.6248;" d="M30.1,145.29c-1.09,0.21-2.13,0.99-2.95,1.9
	c2.03,1.23,5.52-2.29,6.62,1.13c0.4,1.25,0.93-1.08,1.08-1.6c0.54-1.92-1.88-2.72-3.54-2.46C30.48,144.39,31.55,145.01,30.1,145.29z
	"/>
<path d="M33.88,158.4c0.05,0.05-0.43-0.24-0.59,0.34c0.09,0.57,0.99,1.2,0.52,2.71c-0.69,0.77-1.73,0.26-2.86-0.05
	c0.84,1.05,2.13,0.57,2.91,0.42C35.48,160.51,32.98,159.42,33.88,158.4"/>
<path style="fill:none;stroke:#000000;stroke-width:0.6248;" d="M36.62,180.9c-1.98-3.02-2.81-4.06-5.41-7.39
	c-2.6-3.33-4.16-5.2-5.62-6.66c-1.46-1.46-4.61-4.45-5.72-5.41"/>
<path style="fill:none;stroke:#000000;stroke-width:0.6248;" d="M33.4,189.23c-1.87-2.19-2.81-4.06-4.48-6.56
	c-1.66-2.5-1.66-2.29-3.02-4.27c-1.35-1.98-3.12-3.54-4.37-4.79c-1.25-1.25-1.46-2.6-3.54-2.5c-2.08,0.1-2.91,0.62-2.91,1.35
	c0,0.73-0.42,2.5,0,3.33"/>
<path style="fill:none;stroke:#000000;stroke-width:0.6248;" d="M13.73,163.21c0.52,1.25,0.52,1.25,0.73,2.81
	c0.21,1.56,0.52,1.87,0.52,3.43c0,1.56,0.1,2.29,0.1,3.02c0,0.73-0.16,3.28,0.26,4.11"/>
<path style="fill:none;stroke:#000000;stroke-width:0.6248;" d="M17.79,164.15c2.19,1.35,3.64,2.39,4.89,3.64
	c1.25,1.25,3.96,3.95,5.41,5.93c1.46,1.98,5.2,6.76,6.45,10.82"/>
<path style="fill:none;stroke:#000000;stroke-width:0.6248;" d="M11.13,182.57c0.21-1.56,0.62-3.75,0.94-5.93
	c0.31-2.18,1.04-4.68,0.73-6.76"/>
<path style="fill:none;stroke:#000000;stroke-width:0.6248;" d="M4.16,183.71c0.1-2.39-0.21-4.58,0.42-6.04
	c0.62-1.46,0.62-1.67,1.46-3.12c0.83-1.46,1.82-2.28,2.39-3.43"/>
<path style="fill:none;stroke:#000000;stroke-width:0.6248;" d="M2.28,177.78c-0.21-1.46-0.42-2.5-0.1-4.06
	c0.31-1.56,0.21-2.5,1.77-3.75c1.56-1.25,2.91-3.12,3.64-4.27c0.73-1.14,1.46-2.08,1.46-3.43c0-1.35-0.73-3.64-1.14-4.27"/>
<path style="fill:none;stroke:#000000;stroke-width:0.6248;" d="M15.19,176.12c0.62,1.35,0.42,1.04,1.14,2.91
	c0.73,1.87,1.46,2.5,1.77,3.43c0.31,0.94,0.38,1.56,0.4,2.13"/>
<g>
	<path d="M95.52,37.24c0.78,1.44,2.33,2.49,4.06,2.14c0,0.28,0.06,0.72-0.03,0.75c-4.33,1.45-6.05-2.65-6.55-6.17
		c-0.29-2.05,1.29-5.27,3.62-3.26c0.14,0.12,0.14,0.62,0,0.71c-0.3,0.2-0.86-0.07-1.16,0.14C93.23,33.03,94.55,35.46,95.52,37.24"/>
	<path d="M104.88,35.07c-0.24,0.18-0.95,0.83-0.96,0.55c-0.12-2.04,2.06-2.51,3.57-3.32C107.7,34.17,105.88,34.32,104.88,35.07"/>
	<path d="M102.89,31.4c-0.54,0.17-0.98,0.77-1.64,0.49c1.05-1.45,1.86-3.13,3.75-3.75C105.21,29.51,104.22,30.97,102.89,31.4"/>
	<path d="M103.75,33.09c-0.45-0.08-0.84,0.35-1.26,0.05c0.98-1.32,2.56-1.77,3.82-2.82c0.07-0.06,0.56,0.44,0.29,0.69
		C105.73,31.82,105.33,33.36,103.75,33.09"/>
</g>
<path style="fill:none;stroke:#000000;stroke-width:0.6248;" d="M29.44,60.5c2.91-1.14,5-1.77,6.24-2.29
	c1.25-0.52,3.43-1.25,4.48-1.98c1.04-0.73,1.87-1.04,2.6-2.5"/>
<path d="M42.97,67.68c1.46,3.95,3.18,4.19,3.03,3.77c-0.53-1.48-2.26-4.83-2.93-5.91c-0.08-0.12,0.36-0.55,0.71-0.32
	c0.6,0.41,1.33,1.56,1.38,2.26c0.13,1.96,0.94,2.84,2.35,4.41c0.26,0.29-0.07,0.72-0.37,0.73C44.95,72.68,41.52,70.1,42.97,67.68"/>
</svg>
